<?xml version="1.0" encoding="UTF-8" standalone="no"?>
<!DOCTYPE svg PUBLIC "-//W3C//DTD SVG 1.1//EN"
 "http://www.w3.org/Graphics/SVG/1.1/DTD/svg11.dtd">
<!-- Generated by graphviz version 2.43.0 (0)
 -->
<!-- Title: g_get_graph Pages: 1 -->
<svg width="544pt" height="412pt"
 viewBox="0.00 0.00 544.01 412.00" xmlns="http://www.w3.org/2000/svg" xmlns:xlink="http://www.w3.org/1999/xlink">
<g id="graph0" class="graph" transform="scale(1 1) rotate(0) translate(4 408)">
<title>g_get_graph</title>
<polygon fill="white" stroke="transparent" points="-4,4 -4,-408 540.01,-408 540.01,4 -4,4"/>
<g id="clust2" class="cluster">
<title>cluster_nodes_looper</title>
<polygon fill="none" stroke="black" points="298,-8 298,-83 430,-83 430,-8 298,-8"/>
<text text-anchor="middle" x="331" y="-67.8" font-family="Times,serif" font-size="14.00">looper:</text>
</g>
<g id="clust3" class="cluster">
<title>cluster_nodes_player_o_branch</title>
<polygon fill="none" stroke="black" points="8,-174 8,-249 238,-249 238,-174 8,-174"/>
<text text-anchor="middle" x="76.5" y="-233.8" font-family="Times,serif" font-size="14.00">player_o_branch:</text>
</g>
<g id="clust4" class="cluster">
<title>cluster_nodes_player_x_branch</title>
<polygon fill="none" stroke="black" points="246,-174 246,-249 476,-249 476,-174 246,-174"/>
<text text-anchor="middle" x="314.5" y="-233.8" font-family="Times,serif" font-size="14.00">player_x_branch:</text>
</g>
<g id="clust5" class="cluster">
<title>cluster_nodes_random_selection</title>
<polygon fill="none" stroke="black" points="240,-321 240,-396 386,-396 386,-321 240,-321"/>
<text text-anchor="middle" x="313" y="-380.8" font-family="Times,serif" font-size="14.00">random_selection:</text>
</g>
<g id="clust6" class="cluster">
<title>cluster_nodes_last_draw</title>
<polygon fill="none" stroke="black" points="149,-91 149,-166 521,-166 521,-91 149,-91"/>
<text text-anchor="middle" x="194" y="-150.8" font-family="Times,serif" font-size="14.00">last_draw:</text>
</g>
<!-- j_turn -->
<g id="node1" class="node">
<title>j_turn</title>
<ellipse fill="papayawhip" stroke="black" cx="313" cy="-275" rx="30.59" ry="18"/>
<text text-anchor="middle" x="313" y="-271.3" font-family="Times,serif" font-size="14.00">turn</text>
</g>
<!-- l_player_o_filter -->
<g id="node3" class="node">
<title>l_player_o_filter</title>
<polygon fill="lightblue" stroke="black" points="134,-218 16,-218 16,-182 134,-182 134,-218"/>
<text text-anchor="middle" x="75" y="-196.3" font-family="Times,serif" font-size="14.00">player_o_filter</text>
</g>
<!-- j_turn&#45;&gt;l_player_o_filter -->
<g id="edge6" class="edge">
<title>j_turn&#45;&gt;l_player_o_filter</title>
<path fill="none" stroke="black" d="M282.42,-273.74C247.51,-272.5 189.26,-267.49 143,-249 128.42,-243.17 113.97,-233.65 102.17,-224.61"/>
<polygon fill="black" stroke="black" points="104.08,-221.66 94.07,-218.18 99.72,-227.14 104.08,-221.66"/>
</g>
<!-- l_player_x_filter -->
<g id="node5" class="node">
<title>l_player_x_filter</title>
<polygon fill="lightblue" stroke="black" points="372,-218 254,-218 254,-182 372,-182 372,-218"/>
<text text-anchor="middle" x="313" y="-196.3" font-family="Times,serif" font-size="14.00">player_x_filter</text>
</g>
<!-- j_turn&#45;&gt;l_player_x_filter -->
<g id="edge9" class="edge">
<title>j_turn&#45;&gt;l_player_x_filter</title>
<path fill="none" stroke="black" d="M313,-256.7C313,-248.25 313,-237.87 313,-228.37"/>
<polygon fill="black" stroke="black" points="316.5,-228.18 313,-218.18 309.5,-228.18 316.5,-228.18"/>
</g>
<!-- l_turn_swapper -->
<g id="node2" class="node">
<title>l_turn_swapper</title>
<polygon fill="lightblue" stroke="black" points="421.5,-52 306.5,-52 306.5,-16 421.5,-16 421.5,-52"/>
<text text-anchor="middle" x="364" y="-30.3" font-family="Times,serif" font-size="14.00">turn_swapper</text>
</g>
<!-- l_turn_swapper&#45;&gt;j_turn -->
<g id="edge5" class="edge">
<title>l_turn_swapper&#45;&gt;j_turn</title>
<path fill="none" stroke="black" d="M421.59,-38.76C457.7,-44.44 501.68,-58.2 525,-91 544.31,-118.17 533.2,-133.69 525,-166 514.68,-206.67 514.36,-224.92 480,-249 460.15,-262.91 396.26,-269.28 353.51,-272.05"/>
<polygon fill="black" stroke="black" points="353.17,-268.56 343.4,-272.66 353.6,-275.55 353.17,-268.56"/>
</g>
<!-- l_player_o -->
<g id="node4" class="node">
<title>l_player_o</title>
<polygon fill="lightblue" stroke="black" points="229.5,-218 152.5,-218 152.5,-182 229.5,-182 229.5,-218"/>
<text text-anchor="middle" x="191" y="-196.3" font-family="Times,serif" font-size="14.00">player_o</text>
</g>
<!-- l_player_o_filter&#45;&gt;l_player_o -->
<g id="edge7" class="edge">
<title>l_player_o_filter&#45;&gt;l_player_o</title>
<path fill="none" stroke="black" d="M134.36,-200C136.85,-200 139.34,-200 141.83,-200"/>
<polygon fill="black" stroke="black" points="142.06,-203.5 152.06,-200 142.06,-196.5 142.06,-203.5"/>
</g>
<!-- l_referee -->
<g id="node8" class="node">
<title>l_referee</title>
<polygon fill="lightblue" stroke="black" points="225,-135 157,-135 157,-99 225,-99 225,-135"/>
<text text-anchor="middle" x="191" y="-113.3" font-family="Times,serif" font-size="14.00">referee</text>
</g>
<!-- l_player_o&#45;&gt;l_referee -->
<g id="edge8" class="edge">
<title>l_player_o&#45;&gt;l_referee</title>
<path fill="none" stroke="black" d="M191,-181.82C191,-171.19 191,-157.31 191,-145.2"/>
<polygon fill="black" stroke="black" points="194.5,-145.15 191,-135.15 187.5,-145.15 194.5,-145.15"/>
</g>
<!-- l_player_x -->
<g id="node6" class="node">
<title>l_player_x</title>
<polygon fill="lightblue" stroke="black" points="467.5,-218 390.5,-218 390.5,-182 467.5,-182 467.5,-218"/>
<text text-anchor="middle" x="429" y="-196.3" font-family="Times,serif" font-size="14.00">player_x</text>
</g>
<!-- l_player_x_filter&#45;&gt;l_player_x -->
<g id="edge10" class="edge">
<title>l_player_x_filter&#45;&gt;l_player_x</title>
<path fill="none" stroke="black" d="M372.36,-200C374.85,-200 377.34,-200 379.83,-200"/>
<polygon fill="black" stroke="black" points="380.06,-203.5 390.06,-200 380.06,-196.5 380.06,-203.5"/>
</g>
<!-- l_player_x&#45;&gt;l_referee -->
<g id="edge11" class="edge">
<title>l_player_x&#45;&gt;l_referee</title>
<path fill="none" stroke="black" d="M401.14,-181.97C394.73,-178.78 387.8,-175.86 381,-174 349.45,-165.36 263.5,-180.15 234,-166 223.6,-161.01 214.61,-152.26 207.57,-143.58"/>
<polygon fill="black" stroke="black" points="210.24,-141.31 201.44,-135.41 204.64,-145.51 210.24,-141.31"/>
</g>
<!-- l_random_player -->
<g id="node7" class="node">
<title>l_random_player</title>
<polygon fill="lightblue" stroke="black" points="374.5,-365 251.5,-365 251.5,-329 374.5,-329 374.5,-365"/>
<text text-anchor="middle" x="313" y="-343.3" font-family="Times,serif" font-size="14.00">random_player</text>
</g>
<!-- l_random_player&#45;&gt;j_turn -->
<g id="edge12" class="edge">
<title>l_random_player&#45;&gt;j_turn</title>
<path fill="none" stroke="black" d="M313,-328.7C313,-320.98 313,-311.71 313,-303.11"/>
<polygon fill="black" stroke="black" points="316.5,-303.1 313,-293.1 309.5,-303.1 316.5,-303.1"/>
</g>
<!-- j_loop -->
<g id="node11" class="node">
<title>j_loop</title>
<ellipse fill="papayawhip" stroke="black" cx="274" cy="-117" rx="30.59" ry="18"/>
<text text-anchor="middle" x="274" y="-113.3" font-family="Times,serif" font-size="14.00">loop</text>
</g>
<!-- l_referee&#45;&gt;j_loop -->
<g id="edge1" class="edge">
<title>l_referee&#45;&gt;j_loop</title>
<path fill="none" stroke="black" d="M225.04,-117C227.82,-117 230.59,-117 233.36,-117"/>
<polygon fill="black" stroke="black" points="233.4,-120.5 243.4,-117 233.4,-113.5 233.4,-120.5"/>
</g>
<!-- l_draw -->
<g id="node9" class="node">
<title>l_draw</title>
<polygon fill="lightblue" stroke="black" points="377,-135 323,-135 323,-99 377,-99 377,-135"/>
<text text-anchor="middle" x="350" y="-113.3" font-family="Times,serif" font-size="14.00">draw</text>
</g>
<!-- d_output -->
<g id="node10" class="node">
<title>d_output</title>
<polygon fill="lightpink" stroke="black" points="419.75,-99 488.25,-99 512.65,-135 395.35,-135 419.75,-99"/>
<text text-anchor="middle" x="454" y="-113.3" font-family="Times,serif" font-size="14.00">output</text>
</g>
<!-- l_draw&#45;&gt;d_output -->
<g id="edge3" class="edge">
<title>l_draw&#45;&gt;d_output</title>
<path fill="none" stroke="black" d="M377.22,-117C383.85,-117 390.47,-117 397.1,-117"/>
<polygon fill="black" stroke="black" points="397.51,-120.5 407.51,-117 397.51,-113.5 397.51,-120.5"/>
</g>
<!-- j_loop&#45;&gt;l_turn_swapper -->
<g id="edge4" class="edge">
<title>j_loop&#45;&gt;l_turn_swapper</title>
<path fill="none" stroke="black" d="M290.09,-101.52C303.18,-89.74 321.93,-72.87 337.27,-59.06"/>
<polygon fill="black" stroke="black" points="339.84,-61.46 344.93,-52.17 335.15,-56.25 339.84,-61.46"/>
</g>
<!-- j_loop&#45;&gt;l_draw -->
<g id="edge2" class="edge">
<title>j_loop&#45;&gt;l_draw</title>
<path fill="none" stroke="black" d="M304.58,-117C307.22,-117 309.86,-117 312.5,-117"/>
<polygon fill="black" stroke="black" points="312.68,-120.5 322.68,-117 312.68,-113.5 312.68,-120.5"/>
</g>
</g>
</svg>
