<svg width="496pt" height="365pt" viewBox="0.00 0.00 496.00 365.00" xmlns="http://www.w3.org/2000/svg" xmlns:xlink="http://www.w3.org/1999/xlink"><g id="graph0" class="graph" transform="scale(1 1) rotate(0) translate(4 361)"><title>g_get_graph</title><polygon fill="white" stroke="transparent" points="-4,4 -4,-361 492,-361 492,4 -4,4"/><g id="clust2" class="cluster"><title>cluster_nodes_looper</title><polygon fill="none" stroke="black" points="117,-155 117,-230 249,-230 249,-155 117,-155"/><text text-anchor="middle" x="150" y="-214.8" font-family="Times,serif" font-size="14.00">looper:</text></g><g id="clust3" class="cluster"><title>cluster_nodes_player_o_branch</title><polygon fill="none" stroke="black" points="8,-8 8,-83 238,-83 238,-8 8,-8"/><text text-anchor="middle" x="76.5" y="-67.8" font-family="Times,serif" font-size="14.00">player_o_branch:</text></g><g id="clust4" class="cluster"><title>cluster_nodes_player_x_branch</title><polygon fill="none" stroke="black" points="250,-8 250,-83 480,-83 480,-8 250,-8"/><text text-anchor="middle" x="318.5" y="-67.8" font-family="Times,serif" font-size="14.00">player_x_branch:</text></g><g id="clust5" class="cluster"><title>cluster_nodes_random_selection</title><polygon fill="none" stroke="black" points="257,-155 257,-230 403,-230 403,-155 257,-155"/><text text-anchor="middle" x="330" y="-214.8" font-family="Times,serif" font-size="14.00">random_selection:</text></g><g id="clust6" class="cluster"><title>cluster_nodes_last_draw</title><polygon fill="none" stroke="black" points="58,-238 58,-313 430,-313 430,-238 58,-238"/><text text-anchor="middle" x="103" y="-297.8" font-family="Times,serif" font-size="14.00">last_draw:</text></g><!-- j_draw --><g id="node1" class="node"><title>j_draw</title><ellipse fill="papayawhip" stroke="black" cx="100" cy="-339" rx="34.39" ry="18"/><text text-anchor="middle" x="100" y="-335.3" font-family="Times,serif" font-size="14.00">draw</text></g><!-- l_referee --><g id="node9" class="node"><title>l_referee</title><polygon fill="lightblue" stroke="black" points="134,-282 66,-282 66,-246 134,-246 134,-282"/><text text-anchor="middle" x="100" y="-260.3" font-family="Times,serif" font-size="14.00">referee</text></g><!-- j_draw&#45;&gt;l_referee --><g id="edge1" class="edge"><title>j_draw&#45;&gt;l_referee</title><path fill="none" stroke="black" d="M100,-320.7C100,-312.25 100,-301.87 100,-292.37"/><polygon fill="black" stroke="black" points="103.5,-292.18 100,-282.18 96.5,-292.18 103.5,-292.18"/></g><!-- j_turn --><g id="node2" class="node"><title>j_turn</title><ellipse fill="papayawhip" stroke="black" cx="240" cy="-109" rx="30.59" ry="18"/><text text-anchor="middle" x="240" y="-105.3" font-family="Times,serif" font-size="14.00">turn</text></g><!-- l_player_o_filter --><g id="node4" class="node"><title>l_player_o_filter</title><polygon fill="lightblue" stroke="black" points="230,-52 112,-52 112,-16 230,-16 230,-52"/><text text-anchor="middle" x="171" y="-30.3" font-family="Times,serif" font-size="14.00">player_o_filter</text></g><!-- j_turn&#45;&gt;l_player_o_filter --><g id="edge7" class="edge"><title>j_turn&#45;&gt;l_player_o_filter</title><path fill="none" stroke="black" d="M225.7,-92.87C216.59,-83.24 204.59,-70.53 194.14,-59.48"/><polygon fill="black" stroke="black" points="196.63,-57.02 187.21,-52.15 191.54,-61.82 196.63,-57.02"/></g><!-- l_player_x_filter --><g id="node6" class="node"><title>l_player_x_filter</title><polygon fill="lightblue" stroke="black" points="376,-52 258,-52 258,-16 376,-16 376,-52"/><text text-anchor="middle" x="317" y="-30.3" font-family="Times,serif" font-size="14.00">player_x_filter</text></g><!-- j_turn&#45;&gt;l_player_x_filter --><g id="edge10" class="edge"><title>j_turn&#45;&gt;l_player_x_filter</title><path fill="none" stroke="black" d="M255.58,-93.23C265.89,-83.45 279.65,-70.41 291.53,-59.15"/><polygon fill="black" stroke="black" points="294.16,-61.47 299.01,-52.05 289.35,-56.39 294.16,-61.47"/></g><!-- l_turn_swapper --><g id="node3" class="node"><title>l_turn_swapper</title><polygon fill="lightblue" stroke="black" points="240.5,-199 125.5,-199 125.5,-163 240.5,-163 240.5,-199"/><text text-anchor="middle" x="183" y="-177.3" font-family="Times,serif" font-size="14.00">turn_swapper</text></g><!-- l_turn_swapper&#45;&gt;j_turn --><g id="edge6" class="edge"><title>l_turn_swapper&#45;&gt;j_turn</title><path fill="none" stroke="black" d="M197.09,-162.7C204.23,-153.93 213.01,-143.15 220.76,-133.63"/><polygon fill="black" stroke="black" points="223.64,-135.64 227.24,-125.67 218.21,-131.22 223.64,-135.64"/></g><!-- l_player_o --><g id="node5" class="node"><title>l_player_o</title><polygon fill="lightblue" stroke="black" points="93.5,-52 16.5,-52 16.5,-16 93.5,-16 93.5,-52"/><text text-anchor="middle" x="55" y="-30.3" font-family="Times,serif" font-size="14.00">player_o</text></g><!-- l_player_o_filter&#45;&gt;l_player_o --><g id="edge8" class="edge"><title>l_player_o_filter&#45;&gt;l_player_o</title><path fill="none" stroke="black" d="M111.98,-34C109.19,-34 106.4,-34 103.61,-34"/><polygon fill="black" stroke="black" points="103.52,-30.5 93.52,-34 103.52,-37.5 103.52,-30.5"/></g><!-- l_player_o&#45;&gt;j_draw --><g id="edge9" class="edge"><title>l_player_o&#45;&gt;j_draw</title><path fill="none" stroke="black" d="M49.29,-52.22C35.11,-98.36 2.94,-227.13 54,-313 56.25,-316.78 59.29,-320.02 62.74,-322.8"/><polygon fill="black" stroke="black" points="61.09,-325.9 71.37,-328.46 64.93,-320.05 61.09,-325.9"/></g><!-- l_player_x --><g id="node7" class="node"><title>l_player_x</title><polygon fill="lightblue" stroke="black" points="471.5,-52 394.5,-52 394.5,-16 471.5,-16 471.5,-52"/><text text-anchor="middle" x="433" y="-30.3" font-family="Times,serif" font-size="14.00">player_x</text></g><!-- l_player_x_filter&#45;&gt;l_player_x --><g id="edge11" class="edge"><title>l_player_x_filter&#45;&gt;l_player_x</title><path fill="none" stroke="black" d="M376.36,-34C378.85,-34 381.34,-34 383.83,-34"/><polygon fill="black" stroke="black" points="384.06,-37.5 394.06,-34 384.06,-30.5 384.06,-37.5"/></g><!-- l_player_x&#45;&gt;j_draw --><g id="edge12" class="edge"><title>l_player_x&#45;&gt;j_draw</title><path fill="none" stroke="black" d="M440.03,-52.19C458.53,-100.56 502.61,-239.06 434,-313 414.71,-333.79 230.89,-337.41 144.48,-337.96"/><polygon fill="black" stroke="black" points="144.42,-334.46 134.44,-338.01 144.46,-341.46 144.42,-334.46"/></g><!-- l_random_player --><g id="node8" class="node"><title>l_random_player</title><polygon fill="lightblue" stroke="black" points="388.5,-199 265.5,-199 265.5,-163 388.5,-163 388.5,-199"/><text text-anchor="middle" x="327" y="-177.3" font-family="Times,serif" font-size="14.00">random_player</text></g><!-- l_random_player&#45;&gt;j_turn --><g id="edge13" class="edge"><title>l_random_player&#45;&gt;j_turn</title><path fill="none" stroke="black" d="M305.49,-162.7C293.36,-152.93 278.12,-140.67 265.4,-130.44"/><polygon fill="black" stroke="black" points="267.45,-127.59 257.46,-124.05 263.06,-133.05 267.45,-127.59"/></g><!-- j_loop --><g id="node11" class="node"><title>j_loop</title><ellipse fill="papayawhip" stroke="black" cx="183" cy="-264" rx="30.59" ry="18"/><text text-anchor="middle" x="183" y="-260.3" font-family="Times,serif" font-size="14.00">loop</text></g><!-- l_referee&#45;&gt;j_loop --><g id="edge2" class="edge"><title>l_referee&#45;&gt;j_loop</title><path fill="none" stroke="black" d="M134.04,-264C136.82,-264 139.59,-264 142.36,-264"/><polygon fill="black" stroke="black" points="142.4,-267.5 152.4,-264 142.4,-260.5 142.4,-267.5"/></g><!-- l_draw --><g id="node10" class="node"><title>l_draw</title><polygon fill="lightblue" stroke="black" points="286,-282 232,-282 232,-246 286,-246 286,-282"/><text text-anchor="middle" x="259" y="-260.3" font-family="Times,serif" font-size="14.00">draw</text></g><!-- d_output --><g id="node12" class="node"><title>d_output</title><polygon fill="lightpink" stroke="black" points="328.75,-246 397.25,-246 421.65,-282 304.35,-282 328.75,-246"/><text text-anchor="middle" x="363" y="-260.3" font-family="Times,serif" font-size="14.00">output</text></g><!-- l_draw&#45;&gt;d_output --><g id="edge4" class="edge"><title>l_draw&#45;&gt;d_output</title><path fill="none" stroke="black" d="M286.22,-264C292.85,-264 299.47,-264 306.1,-264"/><polygon fill="black" stroke="black" points="306.51,-267.5 316.51,-264 306.51,-260.5 306.51,-267.5"/></g><!-- j_loop&#45;&gt;l_turn_swapper --><g id="edge5" class="edge"><title>j_loop&#45;&gt;l_turn_swapper</title><path fill="none" stroke="black" d="M183,-245.82C183,-235.19 183,-221.31 183,-209.2"/><polygon fill="black" stroke="black" points="186.5,-209.15 183,-199.15 179.5,-209.15 186.5,-209.15"/></g><!-- j_loop&#45;&gt;l_draw --><g id="edge3" class="edge"><title>j_loop&#45;&gt;l_draw</title><path fill="none" stroke="black" d="M213.58,-264C216.22,-264 218.86,-264 221.5,-264"/><polygon fill="black" stroke="black" points="221.68,-267.5 231.68,-264 221.68,-260.5 221.68,-267.5"/></g></g></svg>