<?xml version="1.0" encoding="UTF-8" standalone="no"?>
<!DOCTYPE svg PUBLIC "-//W3C//DTD SVG 1.1//EN"
 "http://www.w3.org/Graphics/SVG/1.1/DTD/svg11.dtd">
<!-- Generated by graphviz version 2.43.0 (0)
 -->
<!-- Title: g_get_graph Pages: 1 -->
<svg width="529pt" height="265pt"
 viewBox="0.00 0.00 529.00 265.00" xmlns="http://www.w3.org/2000/svg" xmlns:xlink="http://www.w3.org/1999/xlink">
<g id="graph0" class="graph" transform="scale(1 1) rotate(0) translate(4 261)">
<title>g_get_graph</title>
<polygon fill="white" stroke="transparent" points="-4,4 -4,-261 525,-261 525,4 -4,4"/>
<g id="clust2" class="cluster">
<title>cluster_nodes_player_o_branch</title>
<polygon fill="none" stroke="black" points="8,-174 8,-249 380,-249 380,-174 8,-174"/>
<text text-anchor="middle" x="76.5" y="-233.8" font-family="Times,serif" font-size="14.00">player_o_branch:</text>
</g>
<g id="clust3" class="cluster">
<title>cluster_nodes_player_x_branch</title>
<polygon fill="none" stroke="black" points="29,-91 29,-166 259,-166 259,-91 29,-91"/>
<text text-anchor="middle" x="97.5" y="-150.8" font-family="Times,serif" font-size="14.00">player_x_branch:</text>
</g>
<g id="clust4" class="cluster">
<title>cluster_nodes_last_draw</title>
<polygon fill="none" stroke="black" points="221,-8 221,-83 513,-83 513,-8 221,-8"/>
<text text-anchor="middle" x="266" y="-67.8" font-family="Times,serif" font-size="14.00">last_draw:</text>
</g>
<!-- l_random_player -->
<g id="node1" class="node">
<title>l_random_player</title>
<polygon fill="lightblue" stroke="black" points="139.5,-218 16.5,-218 16.5,-182 139.5,-182 139.5,-218"/>
<text text-anchor="middle" x="78" y="-196.3" font-family="Times,serif" font-size="14.00">random_player</text>
</g>
<!-- l_player_o_filter -->
<g id="node2" class="node">
<title>l_player_o_filter</title>
<polygon fill="lightblue" stroke="black" points="276,-218 158,-218 158,-182 276,-182 276,-218"/>
<text text-anchor="middle" x="217" y="-196.3" font-family="Times,serif" font-size="14.00">player_o_filter</text>
</g>
<!-- l_random_player&#45;&gt;l_player_o_filter -->
<g id="edge3" class="edge">
<title>l_random_player&#45;&gt;l_player_o_filter</title>
<path fill="none" stroke="black" d="M139.63,-200C142.27,-200 144.92,-200 147.56,-200"/>
<polygon fill="black" stroke="black" points="147.76,-203.5 157.76,-200 147.76,-196.5 147.76,-203.5"/>
</g>
<!-- l_player_x_filter -->
<g id="node4" class="node">
<title>l_player_x_filter</title>
<polygon fill="lightblue" stroke="black" points="155,-135 37,-135 37,-99 155,-99 155,-135"/>
<text text-anchor="middle" x="96" y="-113.3" font-family="Times,serif" font-size="14.00">player_x_filter</text>
</g>
<!-- l_random_player&#45;&gt;l_player_x_filter -->
<g id="edge6" class="edge">
<title>l_random_player&#45;&gt;l_player_x_filter</title>
<path fill="none" stroke="black" d="M81.82,-181.82C84.18,-171.19 87.27,-157.31 89.95,-145.2"/>
<polygon fill="black" stroke="black" points="93.44,-145.67 92.19,-135.15 86.6,-144.16 93.44,-145.67"/>
</g>
<!-- l_player_o -->
<g id="node3" class="node">
<title>l_player_o</title>
<polygon fill="lightblue" stroke="black" points="371.5,-218 294.5,-218 294.5,-182 371.5,-182 371.5,-218"/>
<text text-anchor="middle" x="333" y="-196.3" font-family="Times,serif" font-size="14.00">player_o</text>
</g>
<!-- l_player_o_filter&#45;&gt;l_player_o -->
<g id="edge4" class="edge">
<title>l_player_o_filter&#45;&gt;l_player_o</title>
<path fill="none" stroke="black" d="M276.36,-200C278.85,-200 281.34,-200 283.83,-200"/>
<polygon fill="black" stroke="black" points="284.06,-203.5 294.06,-200 284.06,-196.5 284.06,-203.5"/>
</g>
<!-- l_referee -->
<g id="node6" class="node">
<title>l_referee</title>
<polygon fill="lightblue" stroke="black" points="297,-52 229,-52 229,-16 297,-16 297,-52"/>
<text text-anchor="middle" x="263" y="-30.3" font-family="Times,serif" font-size="14.00">referee</text>
</g>
<!-- l_player_o&#45;&gt;l_referee -->
<g id="edge5" class="edge">
<title>l_player_o&#45;&gt;l_referee</title>
<path fill="none" stroke="black" d="M325.64,-181.76C313.37,-153.02 288.67,-95.13 274.22,-61.28"/>
<polygon fill="black" stroke="black" points="277.41,-59.83 270.26,-52.01 270.97,-62.58 277.41,-59.83"/>
</g>
<!-- l_player_x -->
<g id="node5" class="node">
<title>l_player_x</title>
<polygon fill="lightblue" stroke="black" points="250.5,-135 173.5,-135 173.5,-99 250.5,-99 250.5,-135"/>
<text text-anchor="middle" x="212" y="-113.3" font-family="Times,serif" font-size="14.00">player_x</text>
</g>
<!-- l_player_x_filter&#45;&gt;l_player_x -->
<g id="edge7" class="edge">
<title>l_player_x_filter&#45;&gt;l_player_x</title>
<path fill="none" stroke="black" d="M155.36,-117C157.85,-117 160.34,-117 162.83,-117"/>
<polygon fill="black" stroke="black" points="163.06,-120.5 173.06,-117 163.06,-113.5 163.06,-120.5"/>
</g>
<!-- l_player_x&#45;&gt;l_referee -->
<g id="edge8" class="edge">
<title>l_player_x&#45;&gt;l_referee</title>
<path fill="none" stroke="black" d="M222.82,-98.82C229.78,-87.76 238.96,-73.18 246.79,-60.75"/>
<polygon fill="black" stroke="black" points="249.83,-62.48 252.2,-52.15 243.91,-58.75 249.83,-62.48"/>
</g>
<!-- l_draw -->
<g id="node7" class="node">
<title>l_draw</title>
<polygon fill="lightblue" stroke="black" points="369,-52 315,-52 315,-16 369,-16 369,-52"/>
<text text-anchor="middle" x="342" y="-30.3" font-family="Times,serif" font-size="14.00">draw</text>
</g>
<!-- l_referee&#45;&gt;l_draw -->
<g id="edge1" class="edge">
<title>l_referee&#45;&gt;l_draw</title>
<path fill="none" stroke="black" d="M297.25,-34C299.71,-34 302.17,-34 304.63,-34"/>
<polygon fill="black" stroke="black" points="304.73,-37.5 314.73,-34 304.73,-30.5 304.73,-37.5"/>
</g>
<!-- d_output -->
<g id="node8" class="node">
<title>d_output</title>
<polygon fill="lightpink" stroke="black" points="411.75,-16 480.25,-16 504.65,-52 387.35,-52 411.75,-16"/>
<text text-anchor="middle" x="446" y="-30.3" font-family="Times,serif" font-size="14.00">output</text>
</g>
<!-- l_draw&#45;&gt;d_output -->
<g id="edge2" class="edge">
<title>l_draw&#45;&gt;d_output</title>
<path fill="none" stroke="black" d="M369.22,-34C375.85,-34 382.47,-34 389.1,-34"/>
<polygon fill="black" stroke="black" points="389.51,-37.5 399.51,-34 389.51,-30.5 389.51,-37.5"/>
</g>
</g>
</svg>
