<?xml version="1.0" encoding="UTF-8" standalone="no"?>
<!DOCTYPE svg PUBLIC "-//W3C//DTD SVG 1.1//EN"
 "http://www.w3.org/Graphics/SVG/1.1/DTD/svg11.dtd">
<!-- Generated by graphviz version 2.43.0 (0)
 -->
<!-- Title: G Pages: 1 -->
<svg width="543pt" height="106pt"
 viewBox="0.00 0.00 542.98 106.00" xmlns="http://www.w3.org/2000/svg" xmlns:xlink="http://www.w3.org/1999/xlink">
<g id="graph0" class="graph" transform="scale(1 1) rotate(0) translate(4 102)">
<title>G</title>
<polygon fill="white" stroke="transparent" points="-4,4 -4,-102 538.98,-102 538.98,4 -4,4"/>
<g id="clust2" class="cluster">
<title>cluster_buffer</title>
<path fill="none" stroke="lightgrey" d="M94,-8C94,-8 440.98,-8 440.98,-8 446.98,-8 452.98,-14 452.98,-20 452.98,-20 452.98,-78 452.98,-78 452.98,-84 446.98,-90 440.98,-90 440.98,-90 94,-90 94,-90 88,-90 82,-84 82,-78 82,-78 82,-20 82,-20 82,-14 88,-8 94,-8"/>
<text text-anchor="middle" x="122" y="-70" font-family="Times,serif" font-size="20.00">Buffer</text>
</g>
<!-- buffer_input_push -->
<g id="node1" class="node">
<title>buffer_input_push</title>
</g>
<!-- buffer_pull -->
<g id="node2" class="node">
<title>buffer_pull</title>
<ellipse fill="none" stroke="black" cx="118.6" cy="-34" rx="28.7" ry="18"/>
<text text-anchor="middle" x="118.6" y="-30.3" font-family="Times,serif" font-size="14.00">pull</text>
</g>
<!-- buffer_input_push&#45;&gt;buffer_pull -->
<g id="edge3" class="edge">
<title>buffer_input_push&#45;&gt;buffer_pull</title>
<path fill="none" stroke="black" stroke-dasharray="5,2" d="M54.4,-34C62.32,-34 71.18,-34 79.7,-34"/>
<polygon fill="black" stroke="black" points="79.83,-37.5 89.83,-34 79.83,-30.5 79.83,-37.5"/>
</g>
<!-- buffer_push -->
<g id="node3" class="node">
<title>buffer_push</title>
<ellipse fill="none" stroke="black" cx="216.34" cy="-34" rx="33.29" ry="18"/>
<text text-anchor="middle" x="216.34" y="-30.3" font-family="Times,serif" font-size="14.00">push</text>
</g>
<!-- buffer_pull&#45;&gt;buffer_push -->
<g id="edge4" class="edge">
<title>buffer_pull&#45;&gt;buffer_push</title>
<path fill="none" stroke="black" d="M147.29,-34C155.31,-34 164.25,-34 172.95,-34"/>
<polygon fill="black" stroke="black" points="172.98,-37.5 182.98,-34 172.98,-30.5 172.98,-37.5"/>
</g>
<!-- buffer_inner_pull -->
<g id="node4" class="node">
<title>buffer_inner_pull</title>
<ellipse fill="none" stroke="black" cx="314.09" cy="-34" rx="28.7" ry="18"/>
<text text-anchor="middle" x="314.09" y="-30.3" font-family="Times,serif" font-size="14.00">pull</text>
</g>
<!-- buffer_push&#45;&gt;buffer_inner_pull -->
<g id="edge1" class="edge">
<title>buffer_push&#45;&gt;buffer_inner_pull</title>
<path fill="none" stroke="black" stroke-dasharray="5,2" d="M249.49,-34C257.76,-34 266.72,-34 275.25,-34"/>
<polygon fill="none" stroke="black" points="275.35,-37.5 285.35,-34 275.35,-30.5 275.35,-37.5"/>
</g>
<!-- buffer_inner_push -->
<g id="node5" class="node">
<title>buffer_inner_push</title>
<ellipse fill="none" stroke="black" cx="411.83" cy="-34" rx="33.29" ry="18"/>
<text text-anchor="middle" x="411.83" y="-30.3" font-family="Times,serif" font-size="14.00">push</text>
</g>
<!-- buffer_inner_pull&#45;&gt;buffer_inner_push -->
<g id="edge2" class="edge">
<title>buffer_inner_pull&#45;&gt;buffer_inner_push</title>
<path fill="none" stroke="black" d="M342.78,-34C350.8,-34 359.74,-34 368.44,-34"/>
<polygon fill="black" stroke="black" points="368.47,-37.5 378.47,-34 368.47,-30.5 368.47,-37.5"/>
</g>
<!-- buffer_exit_pull -->
<g id="node6" class="node">
<title>buffer_exit_pull</title>
</g>
<!-- buffer_inner_push&#45;&gt;buffer_exit_pull -->
<g id="edge5" class="edge">
<title>buffer_inner_push&#45;&gt;buffer_exit_pull</title>
<path fill="none" stroke="black" stroke-dasharray="5,2" d="M445.23,-34C453.38,-34 462.19,-34 470.53,-34"/>
<polygon fill="black" stroke="black" points="470.75,-37.5 480.75,-34 470.75,-30.5 470.75,-37.5"/>
</g>
</g>
</svg>
