<?xml version="1.0" encoding="UTF-8" standalone="no"?>
<!DOCTYPE svg PUBLIC "-//W3C//DTD SVG 1.1//EN"
 "http://www.w3.org/Graphics/SVG/1.1/DTD/svg11.dtd">
<!-- Generated by graphviz version 2.43.0 (0)
 -->
<!-- Title: G Pages: 1 -->
<svg width="347pt" height="160pt"
 viewBox="0.00 0.00 347.49 160.00" xmlns="http://www.w3.org/2000/svg" xmlns:xlink="http://www.w3.org/1999/xlink">
<g id="graph0" class="graph" transform="scale(1 1) rotate(0) translate(4 156)">
<title>G</title>
<polygon fill="white" stroke="transparent" points="-4,4 -4,-156 343.49,-156 343.49,4 -4,4"/>
<g id="clust2" class="cluster">
<title>cluster_junction</title>
<path fill="none" stroke="lightgrey" d="M94,-8C94,-8 245.49,-8 245.49,-8 251.49,-8 257.49,-14 257.49,-20 257.49,-20 257.49,-132 257.49,-132 257.49,-138 251.49,-144 245.49,-144 245.49,-144 94,-144 94,-144 88,-144 82,-138 82,-132 82,-132 82,-20 82,-20 82,-14 88,-8 94,-8"/>
<text text-anchor="middle" x="132.5" y="-124" font-family="Times,serif" font-size="20.00">Junction</text>
</g>
<!-- junction_push_1 -->
<g id="node1" class="node">
<title>junction_push_1</title>
<ellipse fill="none" stroke="black" cx="216.34" cy="-88" rx="33.29" ry="18"/>
<text text-anchor="middle" x="216.34" y="-84.3" font-family="Times,serif" font-size="14.00">push</text>
</g>
<!-- junction_exit_pull_1 -->
<g id="node7" class="node">
<title>junction_exit_pull_1</title>
</g>
<!-- junction_push_1&#45;&gt;junction_exit_pull_1 -->
<g id="edge7" class="edge">
<title>junction_push_1&#45;&gt;junction_exit_pull_1</title>
<path fill="none" stroke="black" stroke-dasharray="5,2" d="M249.74,-88C257.9,-88 266.7,-88 275.04,-88"/>
<polygon fill="black" stroke="black" points="275.26,-91.5 285.26,-88 275.26,-84.5 275.26,-91.5"/>
</g>
<!-- junction_push_2 -->
<g id="node2" class="node">
<title>junction_push_2</title>
<ellipse fill="none" stroke="black" cx="216.34" cy="-34" rx="33.29" ry="18"/>
<text text-anchor="middle" x="216.34" y="-30.3" font-family="Times,serif" font-size="14.00">push</text>
</g>
<!-- junction_exit_pull_2 -->
<g id="node8" class="node">
<title>junction_exit_pull_2</title>
</g>
<!-- junction_push_2&#45;&gt;junction_exit_pull_2 -->
<g id="edge8" class="edge">
<title>junction_push_2&#45;&gt;junction_exit_pull_2</title>
<path fill="none" stroke="black" stroke-dasharray="5,2" d="M249.74,-34C257.9,-34 266.7,-34 275.04,-34"/>
<polygon fill="black" stroke="black" points="275.26,-37.5 285.26,-34 275.26,-30.5 275.26,-37.5"/>
</g>
<!-- junction_pull_1 -->
<g id="node3" class="node">
<title>junction_pull_1</title>
<ellipse fill="none" stroke="black" cx="118.6" cy="-88" rx="28.7" ry="18"/>
<text text-anchor="middle" x="118.6" y="-84.3" font-family="Times,serif" font-size="14.00">pull</text>
</g>
<!-- junction_pull_1&#45;&gt;junction_push_1 -->
<g id="edge3" class="edge">
<title>junction_pull_1&#45;&gt;junction_push_1</title>
<path fill="none" stroke="black" d="M147.29,-88C155.31,-88 164.25,-88 172.95,-88"/>
<polygon fill="black" stroke="black" points="172.98,-91.5 182.98,-88 172.98,-84.5 172.98,-91.5"/>
</g>
<!-- junction_pull_1&#45;&gt;junction_push_2 -->
<g id="edge5" class="edge">
<title>junction_pull_1&#45;&gt;junction_push_2</title>
<path fill="none" stroke="black" d="M140.37,-76.28C153.01,-69.16 169.39,-59.92 183.62,-51.89"/>
<polygon fill="black" stroke="black" points="185.61,-54.79 192.6,-46.83 182.17,-48.69 185.61,-54.79"/>
</g>
<!-- junction_pull_2 -->
<g id="node4" class="node">
<title>junction_pull_2</title>
<ellipse fill="none" stroke="black" cx="118.6" cy="-34" rx="28.7" ry="18"/>
<text text-anchor="middle" x="118.6" y="-30.3" font-family="Times,serif" font-size="14.00">pull</text>
</g>
<!-- junction_pull_2&#45;&gt;junction_push_1 -->
<g id="edge4" class="edge">
<title>junction_pull_2&#45;&gt;junction_push_1</title>
<path fill="none" stroke="black" d="M140.37,-45.72C153.01,-52.84 169.39,-62.08 183.62,-70.11"/>
<polygon fill="black" stroke="black" points="182.17,-73.31 192.6,-75.17 185.61,-67.21 182.17,-73.31"/>
</g>
<!-- junction_pull_2&#45;&gt;junction_push_2 -->
<g id="edge6" class="edge">
<title>junction_pull_2&#45;&gt;junction_push_2</title>
<path fill="none" stroke="black" d="M147.29,-34C155.31,-34 164.25,-34 172.95,-34"/>
<polygon fill="black" stroke="black" points="172.98,-37.5 182.98,-34 172.98,-30.5 172.98,-37.5"/>
</g>
<!-- junction_input_outer_1 -->
<g id="node5" class="node">
<title>junction_input_outer_1</title>
</g>
<!-- junction_input_outer_1&#45;&gt;junction_pull_1 -->
<g id="edge1" class="edge">
<title>junction_input_outer_1&#45;&gt;junction_pull_1</title>
<path fill="none" stroke="black" stroke-dasharray="5,2" d="M54.4,-88C62.32,-88 71.18,-88 79.7,-88"/>
<polygon fill="black" stroke="black" points="79.83,-91.5 89.83,-88 79.83,-84.5 79.83,-91.5"/>
</g>
<!-- junction_input_outer_2 -->
<g id="node6" class="node">
<title>junction_input_outer_2</title>
</g>
<!-- junction_input_outer_2&#45;&gt;junction_pull_2 -->
<g id="edge2" class="edge">
<title>junction_input_outer_2&#45;&gt;junction_pull_2</title>
<path fill="none" stroke="black" stroke-dasharray="5,2" d="M54.4,-34C62.32,-34 71.18,-34 79.7,-34"/>
<polygon fill="black" stroke="black" points="79.83,-37.5 89.83,-34 79.83,-30.5 79.83,-37.5"/>
</g>
</g>
</svg>
