<svg width="379pt" height="106pt" viewBox="0.00 0.00 378.78 106.00" xmlns="http://www.w3.org/2000/svg" xmlns:xlink="http://www.w3.org/1999/xlink"><g id="graph0" class="graph" transform="scale(1 1) rotate(0) translate(4 102)"><title>G</title><polygon fill="white" stroke="transparent" points="-4,4 -4,-102 374.78,-102 374.78,4 -4,4"/><g id="clust2" class="cluster"><title>cluster_drain</title><path fill="none" stroke="lightgrey" d="M94,-8C94,-8 350.78,-8 350.78,-8 356.78,-8 362.78,-14 362.78,-20 362.78,-20 362.78,-78 362.78,-78 362.78,-84 356.78,-90 350.78,-90 350.78,-90 94,-90 94,-90 88,-90 82,-84 82,-78 82,-78 82,-20 82,-20 82,-14 88,-8 94,-8"/><text text-anchor="middle" x="119" y="-70" font-family="Times,serif" font-size="20.00">Drain</text></g><!-- drain_input --><g id="node1" class="node"><title>drain_input</title></g><!-- drain_pull --><g id="node2" class="node"><title>drain_pull</title><ellipse fill="none" stroke="black" cx="118.6" cy="-34" rx="28.7" ry="18"/><text text-anchor="middle" x="118.6" y="-30.3" font-family="Times,serif" font-size="14.00">pull</text></g><!-- drain_input&#45;&gt;drain_pull --><g id="edge1" class="edge"><title>drain_input&#45;&gt;drain_pull</title><path fill="none" stroke="black" stroke-dasharray="5,2" d="M54.4,-34C62.32,-34 71.18,-34 79.7,-34"/><polygon fill="black" stroke="black" points="79.83,-37.5 89.83,-34 79.83,-30.5 79.83,-37.5"/></g><!-- drain_push --><g id="node3" class="node"><title>drain_push</title><ellipse fill="none" stroke="black" cx="268.99" cy="-34" rx="85.59" ry="18"/><text text-anchor="middle" x="268.99" y="-30.3" font-family="Times,serif" font-size="14.00">push: file/stdout</text></g><!-- drain_pull&#45;&gt;drain_push --><g id="edge2" class="edge"><title>drain_pull&#45;&gt;drain_push</title><path fill="none" stroke="black" d="M147.51,-34C155.09,-34 163.75,-34 172.87,-34"/><polygon fill="black" stroke="black" points="172.91,-37.5 182.91,-34 172.91,-30.5 172.91,-37.5"/></g></g></svg>