<svg width="366pt" height="106pt" viewBox="0.00 0.00 365.78 106.00" xmlns="http://www.w3.org/2000/svg" xmlns:xlink="http://www.w3.org/1999/xlink"><g id="graph0" class="graph" transform="scale(1 1) rotate(0) translate(4 102)"><title>G</title><polygon fill="white" stroke="transparent" points="-4,4 -4,-102 361.78,-102 361.78,4 -4,4"/><g id="clust2" class="cluster"><title>cluster_faucet</title><path fill="none" stroke="lightgrey" d="M20,-8C20,-8 263.78,-8 263.78,-8 269.78,-8 275.78,-14 275.78,-20 275.78,-20 275.78,-78 275.78,-78 275.78,-84 269.78,-90 263.78,-90 263.78,-90 20,-90 20,-90 14,-90 8,-84 8,-78 8,-78 8,-20 8,-20 8,-14 14,-8 20,-8"/><text text-anchor="middle" x="51" y="-70" font-family="Times,serif" font-size="20.00">Faucet</text></g><!-- faucet_pull --><g id="node1" class="node"><title>faucet_pull</title><ellipse fill="none" stroke="black" cx="90.74" cy="-34" rx="74.99" ry="18"/><text text-anchor="middle" x="90.74" y="-30.3" font-family="Times,serif" font-size="14.00">pull: file/stdin</text></g><!-- faucet_push --><g id="node2" class="node"><title>faucet_push</title><ellipse fill="none" stroke="black" cx="234.63" cy="-34" rx="33.29" ry="18"/><text text-anchor="middle" x="234.63" y="-30.3" font-family="Times,serif" font-size="14.00">push</text></g><!-- faucet_pull&#45;&gt;faucet_push --><g id="edge1" class="edge"><title>faucet_pull&#45;&gt;faucet_push</title><path fill="none" stroke="black" d="M165.6,-34C174.31,-34 182.96,-34 191.02,-34"/><polygon fill="black" stroke="black" points="191.24,-37.5 201.24,-34 191.24,-30.5 191.24,-37.5"/></g><!-- fauct_exit_pull --><g id="node3" class="node"><title>fauct_exit_pull</title></g><!-- faucet_push&#45;&gt;fauct_exit_pull --><g id="edge2" class="edge"><title>faucet_push&#45;&gt;fauct_exit_pull</title><path fill="none" stroke="black" stroke-dasharray="5,2" d="M268.03,-34C276.19,-34 284.99,-34 293.33,-34"/><polygon fill="black" stroke="black" points="293.55,-37.5 303.55,-34 293.55,-30.5 293.55,-37.5"/></g></g></svg>