<svg width="279pt" height="210pt" viewBox="0.00 0.00 279.00 210.00" xmlns="http://www.w3.org/2000/svg" xmlns:xlink="http://www.w3.org/1999/xlink"><g id="graph0" class="graph" transform="scale(1 1) rotate(0) translate(4 206)"><title>G</title><polygon fill="white" stroke="transparent" points="-4,4 -4,-206 275,-206 275,4 -4,4"/><g id="clust1" class="cluster"><title>cluster_legend</title><polygon fill="none" stroke="black" points="8,-8 8,-194 263,-194 263,-8 8,-8"/><text text-anchor="middle" x="135.5" y="-178.8" font-family="Times,serif" font-size="14.00">Legend</text></g><!-- a --><g id="node1" class="node"><title>a</title><ellipse fill="none" stroke="black" cx="27" cy="-151" rx="11" ry="11"/></g><!-- b --><g id="node2" class="node"><title>b</title><ellipse fill="none" stroke="black" cx="244" cy="-151" rx="11" ry="11"/></g><!-- a&#45;&gt;b --><g id="edge1" class="edge"><title>a&#45;&gt;b</title><path fill="none" stroke="black" d="M38.08,-151C71.3,-151 177.73,-151 222.67,-151"/><polygon fill="black" stroke="black" points="222.69,-154.5 232.69,-151 222.69,-147.5 222.69,-154.5"/><text text-anchor="middle" x="135.5" y="-154.8" font-family="Times,serif" font-size="14.00">motion</text></g><!-- c --><g id="node3" class="node"><title>c</title><ellipse fill="none" stroke="black" cx="27" cy="-111" rx="11" ry="11"/></g><!-- d --><g id="node4" class="node"><title>d</title><ellipse fill="none" stroke="black" cx="244" cy="-111" rx="11" ry="11"/></g><!-- c&#45;&gt;d --><g id="edge2" class="edge"><title>c&#45;&gt;d</title><path fill="none" stroke="black" stroke-dasharray="1,5" d="M38.08,-111C74.11,-111 196.3,-111 232.69,-111"/><text text-anchor="middle" x="135.5" y="-114.8" font-family="Times,serif" font-size="14.00">io</text></g><!-- e --><g id="node5" class="node"><title>e</title><ellipse fill="none" stroke="black" cx="27" cy="-71" rx="11" ry="11"/></g><!-- f --><g id="node6" class="node"><title>f</title><ellipse fill="none" stroke="black" cx="244" cy="-71" rx="11" ry="11"/></g><!-- e&#45;&gt;f --><g id="edge3" class="edge"><title>e&#45;&gt;f</title><path fill="none" stroke="black" stroke-dasharray="5,2" d="M38.08,-71C71.3,-71 177.73,-71 222.67,-71"/><polygon fill="black" stroke="black" points="222.69,-74.5 232.69,-71 222.69,-67.5 222.69,-74.5"/><text text-anchor="middle" x="135.5" y="-74.8" font-family="Times,serif" font-size="14.00">channel synchronous</text></g><!-- g --><g id="node7" class="node"><title>g</title><ellipse fill="none" stroke="black" cx="27" cy="-31" rx="11" ry="11"/></g><!-- h --><g id="node8" class="node"><title>h</title><ellipse fill="none" stroke="black" cx="244" cy="-31" rx="11" ry="11"/></g><!-- g&#45;&gt;h --><g id="edge4" class="edge"><title>g&#45;&gt;h</title><path fill="none" stroke="black" stroke-dasharray="5,2" d="M38.08,-31C71.3,-31 177.73,-31 222.67,-31"/><polygon fill="none" stroke="black" points="222.69,-34.5 232.69,-31 222.69,-27.5 222.69,-34.5"/><text text-anchor="middle" x="135.5" y="-34.8" font-family="Times,serif" font-size="14.00">channel asynchronous</text></g></g></svg>