<svg width="568pt" height="146pt" viewBox="0.00 0.00 567.89 146.00" xmlns="http://www.w3.org/2000/svg" xmlns:xlink="http://www.w3.org/1999/xlink"><g id="graph0" class="graph" transform="scale(1 1) rotate(0) translate(4 142)"><title>G</title><polygon fill="white" stroke="transparent" points="-4,4 -4,-142 563.89,-142 563.89,4 -4,4"/><g id="clust2" class="cluster"><title>cluster_regulator</title><path fill="none" stroke="lightgrey" d="M184.4,-48C184.4,-48 465.89,-48 465.89,-48 471.89,-48 477.89,-54 477.89,-60 477.89,-60 477.89,-118 477.89,-118 477.89,-124 471.89,-130 465.89,-130 465.89,-130 184.4,-130 184.4,-130 178.4,-130 172.4,-124 172.4,-118 172.4,-118 172.4,-60 172.4,-60 172.4,-54 178.4,-48 184.4,-48"/><text text-anchor="middle" x="231.4" y="-110" font-family="Times,serif" font-size="20.00">Regulator</text></g><!-- regulator_input_push --><g id="node1" class="node"><title>regulator_input_push</title></g><!-- regulator_pull --><g id="node2" class="node"><title>regulator_pull</title><ellipse fill="none" stroke="black" cx="209" cy="-74" rx="28.7" ry="18"/><text text-anchor="middle" x="209" y="-70.3" font-family="Times,serif" font-size="14.00">pull</text></g><!-- regulator_input_push&#45;&gt;regulator_pull --><g id="edge1" class="edge"><title>regulator_input_push&#45;&gt;regulator_pull</title><path fill="none" stroke="black" stroke-dasharray="5,2" d="M54.17,-74C84.66,-74 135.27,-74 170.07,-74"/><polygon fill="black" stroke="black" points="170.32,-77.5 180.32,-74 170.32,-70.5 170.32,-77.5"/></g><!-- regulator_note_point --><g id="node4" class="node"><title>regulator_note_point</title><ellipse fill="black" stroke="black" cx="365.8" cy="-74" rx="1.8" ry="1.8"/></g><!-- regulator_pull&#45;&gt;regulator_note_point --><g id="edge2" class="edge"><title>regulator_pull&#45;&gt;regulator_note_point</title><path fill="none" stroke="black" d="M237.68,-74C279.42,-74 354.62,-74 363.86,-74"/></g><!-- regulator_push --><g id="node3" class="node"><title>regulator_push</title><ellipse fill="none" stroke="black" cx="436.75" cy="-74" rx="33.29" ry="18"/><text text-anchor="middle" x="436.75" y="-70.3" font-family="Times,serif" font-size="14.00">push</text></g><!-- regulator_exit_pull --><g id="node5" class="node"><title>regulator_exit_pull</title></g><!-- regulator_push&#45;&gt;regulator_exit_pull --><g id="edge4" class="edge"><title>regulator_push&#45;&gt;regulator_exit_pull</title><path fill="none" stroke="black" stroke-dasharray="5,2" d="M470.15,-74C478.3,-74 487.11,-74 495.44,-74"/><polygon fill="black" stroke="black" points="495.67,-77.5 505.67,-74 495.67,-70.5 495.67,-77.5"/></g><!-- regulator_note_point&#45;&gt;regulator_push --><g id="edge3" class="edge"><title>regulator_note_point&#45;&gt;regulator_push</title><path fill="none" stroke="black" d="M367.77,-74C370.95,-74 381.45,-74 393.28,-74"/><polygon fill="black" stroke="black" points="393.41,-77.5 403.41,-74 393.41,-70.5 393.41,-77.5"/></g><!-- regulator_note --><g id="node6" class="node"><title>regulator_note</title><polygon fill="#ffec8b" stroke="black" points="322,-38 90,-38 90,0 328,0 328,-32 322,-38"/><polyline fill="none" stroke="black" points="322,-38 322,-32 "/><polyline fill="none" stroke="black" points="328,-32 322,-32 "/><text text-anchor="middle" x="209" y="-22.8" font-family="Times,serif" font-size="14.00">Pipeawesome controls the flow</text><text text-anchor="middle" x="209" y="-7.8" font-family="Times,serif" font-size="14.00">between the pull and the push</text></g><!-- regulator_note&#45;&gt;regulator_note_point --><g id="edge5" class="edge"><title>regulator_note&#45;&gt;regulator_note_point</title><path fill="none" stroke="black" stroke-width="0.3" d="M313.91,-38.04C318.75,-39.85 323.47,-41.83 328,-44 344.65,-51.97 360.34,-68.96 364,-73.08"/></g></g></svg>