<?xml version="1.0" encoding="UTF-8" standalone="no"?>
<!DOCTYPE svg PUBLIC "-//W3C//DTD SVG 1.1//EN"
 "http://www.w3.org/Graphics/SVG/1.1/DTD/svg11.dtd">
<!-- Generated by graphviz version 2.43.0 (0)
 -->
<!-- Title: g_get_graph Pages: 1 -->
<svg width="348pt" height="99pt"
 viewBox="0.00 0.00 348.00 99.00" xmlns="http://www.w3.org/2000/svg" xmlns:xlink="http://www.w3.org/1999/xlink">
<g id="graph0" class="graph" transform="scale(1 1) rotate(0) translate(4 95)">
<title>g_get_graph</title>
<polygon fill="white" stroke="transparent" points="-4,4 -4,-95 344,-95 344,4 -4,4"/>
<g id="clust2" class="cluster">
<title>cluster_nodes_initial</title>
<polygon fill="none" stroke="black" points="8,-8 8,-83 332,-83 332,-8 8,-8"/>
<text text-anchor="middle" x="39" y="-67.8" font-family="Times,serif" font-size="14.00">initial:</text>
</g>
<!-- l_draw -->
<g id="node1" class="node">
<title>l_draw</title>
<polygon fill="lightblue" stroke="black" points="188,-52 134,-52 134,-16 188,-16 188,-52"/>
<text text-anchor="middle" x="161" y="-30.3" font-family="Times,serif" font-size="14.00">draw</text>
</g>
<!-- d_output -->
<g id="node3" class="node">
<title>d_output</title>
<polygon fill="lightpink" stroke="black" points="230.75,-16 299.25,-16 323.65,-52 206.35,-52 230.75,-16"/>
<text text-anchor="middle" x="265" y="-30.3" font-family="Times,serif" font-size="14.00">output</text>
</g>
<!-- l_draw&#45;&gt;d_output -->
<g id="edge2" class="edge">
<title>l_draw&#45;&gt;d_output</title>
<path fill="none" stroke="black" d="M188.22,-34C194.85,-34 201.47,-34 208.1,-34"/>
<polygon fill="black" stroke="black" points="208.51,-37.5 218.51,-34 208.51,-30.5 208.51,-37.5"/>
</g>
<!-- f_input -->
<g id="node2" class="node">
<title>f_input</title>
<polygon fill="#c1ffc1" stroke="black" points="95.07,-52 36.93,-52 16.23,-16 115.77,-16 95.07,-52"/>
<text text-anchor="middle" x="66" y="-30.3" font-family="Times,serif" font-size="14.00">input</text>
</g>
<!-- f_input&#45;&gt;l_draw -->
<g id="edge1" class="edge">
<title>f_input&#45;&gt;l_draw</title>
<path fill="none" stroke="black" d="M105.71,-34C111.7,-34 117.7,-34 123.69,-34"/>
<polygon fill="black" stroke="black" points="123.79,-37.5 133.79,-34 123.79,-30.5 123.79,-37.5"/>
</g>
</g>
</svg>
