<?xml version="1.0" encoding="UTF-8" standalone="no"?>
<!DOCTYPE svg PUBLIC "-//W3C//DTD SVG 1.1//EN"
 "http://www.w3.org/Graphics/SVG/1.1/DTD/svg11.dtd">
<!-- Generated by graphviz version 2.43.0 (0)
 -->
<!-- Title: g_get_graph Pages: 1 -->
<svg width="514pt" height="99pt"
 viewBox="0.00 0.00 514.00 99.00" xmlns="http://www.w3.org/2000/svg" xmlns:xlink="http://www.w3.org/1999/xlink">
<g id="graph0" class="graph" transform="scale(1 1) rotate(0) translate(4 95)">
<title>g_get_graph</title>
<polygon fill="white" stroke="transparent" points="-4,4 -4,-95 510,-95 510,4 -4,4"/>
<g id="clust2" class="cluster">
<title>cluster_nodes_initial_word</title>
<polygon fill="none" stroke="black" points="8,-8 8,-83 498,-83 498,-8 8,-8"/>
<text text-anchor="middle" x="60.5" y="-67.8" font-family="Times,serif" font-size="14.00">initial_word:</text>
</g>
<!-- l_player -->
<g id="node1" class="node">
<title>l_player</title>
<polygon fill="lightblue" stroke="black" points="196,-52 134,-52 134,-16 196,-16 196,-52"/>
<text text-anchor="middle" x="165" y="-30.3" font-family="Times,serif" font-size="14.00">player</text>
</g>
<!-- l_referee -->
<g id="node2" class="node">
<title>l_referee</title>
<polygon fill="lightblue" stroke="black" points="282,-52 214,-52 214,-16 282,-16 282,-52"/>
<text text-anchor="middle" x="248" y="-30.3" font-family="Times,serif" font-size="14.00">referee</text>
</g>
<!-- l_player&#45;&gt;l_referee -->
<g id="edge2" class="edge">
<title>l_player&#45;&gt;l_referee</title>
<path fill="none" stroke="black" d="M196.12,-34C198.73,-34 201.33,-34 203.93,-34"/>
<polygon fill="black" stroke="black" points="203.96,-37.5 213.96,-34 203.96,-30.5 203.96,-37.5"/>
</g>
<!-- l_draw -->
<g id="node3" class="node">
<title>l_draw</title>
<polygon fill="lightblue" stroke="black" points="354,-52 300,-52 300,-16 354,-16 354,-52"/>
<text text-anchor="middle" x="327" y="-30.3" font-family="Times,serif" font-size="14.00">draw</text>
</g>
<!-- l_referee&#45;&gt;l_draw -->
<g id="edge3" class="edge">
<title>l_referee&#45;&gt;l_draw</title>
<path fill="none" stroke="black" d="M282.25,-34C284.71,-34 287.17,-34 289.63,-34"/>
<polygon fill="black" stroke="black" points="289.73,-37.5 299.73,-34 289.73,-30.5 289.73,-37.5"/>
</g>
<!-- d_output -->
<g id="node5" class="node">
<title>d_output</title>
<polygon fill="lightpink" stroke="black" points="396.75,-16 465.25,-16 489.65,-52 372.35,-52 396.75,-16"/>
<text text-anchor="middle" x="431" y="-30.3" font-family="Times,serif" font-size="14.00">output</text>
</g>
<!-- l_draw&#45;&gt;d_output -->
<g id="edge4" class="edge">
<title>l_draw&#45;&gt;d_output</title>
<path fill="none" stroke="black" d="M354.22,-34C360.85,-34 367.47,-34 374.1,-34"/>
<polygon fill="black" stroke="black" points="374.51,-37.5 384.51,-34 374.51,-30.5 374.51,-37.5"/>
</g>
<!-- f_input -->
<g id="node4" class="node">
<title>f_input</title>
<polygon fill="#c1ffc1" stroke="black" points="95.07,-52 36.93,-52 16.23,-16 115.77,-16 95.07,-52"/>
<text text-anchor="middle" x="66" y="-30.3" font-family="Times,serif" font-size="14.00">input</text>
</g>
<!-- f_input&#45;&gt;l_player -->
<g id="edge1" class="edge">
<title>f_input&#45;&gt;l_player</title>
<path fill="none" stroke="black" d="M105.45,-34C111.51,-34 117.57,-34 123.63,-34"/>
<polygon fill="black" stroke="black" points="123.83,-37.5 133.83,-34 123.83,-30.5 123.83,-37.5"/>
</g>
</g>
</svg>
