<?xml version="1.0" encoding="UTF-8" standalone="no"?>
<!DOCTYPE svg PUBLIC "-//W3C//DTD SVG 1.1//EN"
 "http://www.w3.org/Graphics/SVG/1.1/DTD/svg11.dtd">
<!-- Generated by graphviz version 2.43.0 (0)
 -->
<!-- Title: g_get_graph Pages: 1 -->
<svg width="673pt" height="412pt"
 viewBox="0.00 0.00 672.93 412.00" xmlns="http://www.w3.org/2000/svg" xmlns:xlink="http://www.w3.org/1999/xlink">
<g id="graph0" class="graph" transform="scale(1 1) rotate(0) translate(4 408)">
<title>g_get_graph</title>
<polygon fill="white" stroke="transparent" points="-4,4 -4,-408 668.93,-408 668.93,4 -4,4"/>
<g id="clust2" class="cluster">
<title>cluster_nodes_looper</title>
<polygon fill="none" stroke="black" points="283,-8 283,-83 571,-83 571,-8 283,-8"/>
<text text-anchor="middle" x="316" y="-67.8" font-family="Times,serif" font-size="14.00">looper:</text>
</g>
<g id="clust3" class="cluster">
<title>cluster_nodes_player_o_branch</title>
<polygon fill="none" stroke="black" points="8,-174 8,-249 238,-249 238,-174 8,-174"/>
<text text-anchor="middle" x="76.5" y="-233.8" font-family="Times,serif" font-size="14.00">player_o_branch:</text>
</g>
<g id="clust4" class="cluster">
<title>cluster_nodes_player_x_branch</title>
<polygon fill="none" stroke="black" points="246,-174 246,-249 476,-249 476,-174 246,-174"/>
<text text-anchor="middle" x="314.5" y="-233.8" font-family="Times,serif" font-size="14.00">player_x_branch:</text>
</g>
<g id="clust5" class="cluster">
<title>cluster_nodes_random_selection</title>
<polygon fill="none" stroke="black" points="73,-321 73,-396 412,-396 412,-321 73,-321"/>
<text text-anchor="middle" x="146" y="-380.8" font-family="Times,serif" font-size="14.00">random_selection:</text>
</g>
<g id="clust6" class="cluster">
<title>cluster_nodes_last_draw</title>
<polygon fill="none" stroke="black" points="149,-91 149,-166 647,-166 647,-91 149,-91"/>
<text text-anchor="middle" x="194" y="-150.8" font-family="Times,serif" font-size="14.00">last_draw:</text>
</g>
<!-- j_turn -->
<g id="node1" class="node">
<title>j_turn</title>
<ellipse fill="papayawhip" stroke="black" cx="313" cy="-275" rx="30.59" ry="18"/>
<text text-anchor="middle" x="313" y="-271.3" font-family="Times,serif" font-size="14.00">turn</text>
</g>
<!-- l_player_o_filter -->
<g id="node4" class="node">
<title>l_player_o_filter</title>
<polygon fill="lightblue" stroke="black" points="134,-218 16,-218 16,-182 134,-182 134,-218"/>
<text text-anchor="middle" x="75" y="-196.3" font-family="Times,serif" font-size="14.00">player_o_filter</text>
</g>
<!-- j_turn&#45;&gt;l_player_o_filter -->
<g id="edge8" class="edge">
<title>j_turn&#45;&gt;l_player_o_filter</title>
<path fill="none" stroke="black" d="M282.42,-273.74C247.51,-272.5 189.26,-267.49 143,-249 128.42,-243.17 113.97,-233.65 102.17,-224.61"/>
<polygon fill="black" stroke="black" points="104.08,-221.66 94.07,-218.18 99.72,-227.14 104.08,-221.66"/>
</g>
<!-- l_player_x_filter -->
<g id="node6" class="node">
<title>l_player_x_filter</title>
<polygon fill="lightblue" stroke="black" points="372,-218 254,-218 254,-182 372,-182 372,-218"/>
<text text-anchor="middle" x="313" y="-196.3" font-family="Times,serif" font-size="14.00">player_x_filter</text>
</g>
<!-- j_turn&#45;&gt;l_player_x_filter -->
<g id="edge11" class="edge">
<title>j_turn&#45;&gt;l_player_x_filter</title>
<path fill="none" stroke="black" d="M313,-256.7C313,-248.25 313,-237.87 313,-228.37"/>
<polygon fill="black" stroke="black" points="316.5,-228.18 313,-218.18 309.5,-228.18 316.5,-228.18"/>
</g>
<!-- b_reprocess -->
<g id="node2" class="node">
<title>b_reprocess</title>
<polygon fill="lightgray" stroke="black" points="424.82,-28.44 494,-16 563.18,-28.44 563.12,-48.56 424.88,-48.56 424.82,-28.44"/>
<text text-anchor="middle" x="494" y="-30.3" font-family="Times,serif" font-size="14.00">reprocess</text>
</g>
<!-- b_reprocess&#45;&gt;j_turn -->
<g id="edge7" class="edge">
<title>b_reprocess&#45;&gt;j_turn</title>
<path fill="none" stroke="black" d="M563.31,-41.68C595.54,-48.66 631.07,-62.74 651,-91 670.21,-118.24 668.69,-137.75 651,-166 606.16,-237.6 560.7,-224.02 480,-249 438,-262 387.89,-268.35 353.59,-271.38"/>
<polygon fill="black" stroke="black" points="353.16,-267.9 343.48,-272.22 353.73,-274.88 353.16,-267.9"/>
</g>
<!-- l_turn_swapper -->
<g id="node3" class="node">
<title>l_turn_swapper</title>
<polygon fill="lightblue" stroke="black" points="406.5,-52 291.5,-52 291.5,-16 406.5,-16 406.5,-52"/>
<text text-anchor="middle" x="349" y="-30.3" font-family="Times,serif" font-size="14.00">turn_swapper</text>
</g>
<!-- l_turn_swapper&#45;&gt;b_reprocess -->
<g id="edge6" class="edge">
<title>l_turn_swapper&#45;&gt;b_reprocess</title>
<path fill="none" stroke="black" d="M406.77,-34C409.41,-34 412.04,-34 414.67,-34"/>
<polygon fill="black" stroke="black" points="414.83,-37.5 424.83,-34 414.83,-30.5 414.83,-37.5"/>
</g>
<!-- l_player_o -->
<g id="node5" class="node">
<title>l_player_o</title>
<polygon fill="lightblue" stroke="black" points="229.5,-218 152.5,-218 152.5,-182 229.5,-182 229.5,-218"/>
<text text-anchor="middle" x="191" y="-196.3" font-family="Times,serif" font-size="14.00">player_o</text>
</g>
<!-- l_player_o_filter&#45;&gt;l_player_o -->
<g id="edge9" class="edge">
<title>l_player_o_filter&#45;&gt;l_player_o</title>
<path fill="none" stroke="black" d="M134.36,-200C136.85,-200 139.34,-200 141.83,-200"/>
<polygon fill="black" stroke="black" points="142.06,-203.5 152.06,-200 142.06,-196.5 142.06,-203.5"/>
</g>
<!-- l_referee -->
<g id="node12" class="node">
<title>l_referee</title>
<polygon fill="lightblue" stroke="black" points="225,-135 157,-135 157,-99 225,-99 225,-135"/>
<text text-anchor="middle" x="191" y="-113.3" font-family="Times,serif" font-size="14.00">referee</text>
</g>
<!-- l_player_o&#45;&gt;l_referee -->
<g id="edge10" class="edge">
<title>l_player_o&#45;&gt;l_referee</title>
<path fill="none" stroke="black" d="M191,-181.82C191,-171.19 191,-157.31 191,-145.2"/>
<polygon fill="black" stroke="black" points="194.5,-145.15 191,-135.15 187.5,-145.15 194.5,-145.15"/>
</g>
<!-- l_player_x -->
<g id="node7" class="node">
<title>l_player_x</title>
<polygon fill="lightblue" stroke="black" points="467.5,-218 390.5,-218 390.5,-182 467.5,-182 467.5,-218"/>
<text text-anchor="middle" x="429" y="-196.3" font-family="Times,serif" font-size="14.00">player_x</text>
</g>
<!-- l_player_x_filter&#45;&gt;l_player_x -->
<g id="edge12" class="edge">
<title>l_player_x_filter&#45;&gt;l_player_x</title>
<path fill="none" stroke="black" d="M372.36,-200C374.85,-200 377.34,-200 379.83,-200"/>
<polygon fill="black" stroke="black" points="380.06,-203.5 390.06,-200 380.06,-196.5 380.06,-203.5"/>
</g>
<!-- l_player_x&#45;&gt;l_referee -->
<g id="edge13" class="edge">
<title>l_player_x&#45;&gt;l_referee</title>
<path fill="none" stroke="black" d="M401.14,-181.97C394.73,-178.78 387.8,-175.86 381,-174 349.45,-165.36 263.5,-180.15 234,-166 223.6,-161.01 214.61,-152.26 207.57,-143.58"/>
<polygon fill="black" stroke="black" points="210.24,-141.31 201.44,-135.41 204.64,-145.51 210.24,-141.31"/>
</g>
<!-- r_regulate_flow -->
<g id="node8" class="node">
<title>r_regulate_flow</title>
<polygon fill="lightgray" stroke="black" points="403.56,-352.56 313,-365 222.44,-352.56 222.52,-332.44 403.48,-332.44 403.56,-352.56"/>
<text text-anchor="middle" x="313" y="-343.3" font-family="Times,serif" font-size="14.00">regulate_flow</text>
</g>
<!-- r_regulate_flow&#45;&gt;j_turn -->
<g id="edge15" class="edge">
<title>r_regulate_flow&#45;&gt;j_turn</title>
<path fill="none" stroke="black" d="M313,-332.17C313,-323.92 313,-313.15 313,-303.26"/>
<polygon fill="black" stroke="black" points="316.5,-303.02 313,-293.02 309.5,-303.02 316.5,-303.02"/>
</g>
<!-- l_random_player -->
<g id="node9" class="node">
<title>l_random_player</title>
<polygon fill="lightblue" stroke="black" points="204.5,-365 81.5,-365 81.5,-329 204.5,-329 204.5,-365"/>
<text text-anchor="middle" x="143" y="-343.3" font-family="Times,serif" font-size="14.00">random_player</text>
</g>
<!-- l_random_player&#45;&gt;r_regulate_flow -->
<g id="edge14" class="edge">
<title>l_random_player&#45;&gt;r_regulate_flow</title>
<path fill="none" stroke="black" d="M204.76,-347C207.2,-347 209.63,-347 212.07,-347"/>
<polygon fill="black" stroke="black" points="212.09,-350.5 222.09,-347 212.09,-343.5 212.09,-350.5"/>
</g>
<!-- j_loop -->
<g id="node10" class="node">
<title>j_loop</title>
<ellipse fill="papayawhip" stroke="black" cx="274" cy="-117" rx="30.59" ry="18"/>
<text text-anchor="middle" x="274" y="-113.3" font-family="Times,serif" font-size="14.00">loop</text>
</g>
<!-- j_loop&#45;&gt;l_turn_swapper -->
<g id="edge5" class="edge">
<title>j_loop&#45;&gt;l_turn_swapper</title>
<path fill="none" stroke="black" d="M288.11,-100.76C298.82,-89.2 313.77,-73.05 326.18,-59.65"/>
<polygon fill="black" stroke="black" points="328.91,-61.85 333.14,-52.13 323.78,-57.09 328.91,-61.85"/>
</g>
<!-- l_only_finishes -->
<g id="node13" class="node">
<title>l_only_finishes</title>
<polygon fill="lightblue" stroke="black" points="431,-135 323,-135 323,-99 431,-99 431,-135"/>
<text text-anchor="middle" x="377" y="-113.3" font-family="Times,serif" font-size="14.00">only_finishes</text>
</g>
<!-- j_loop&#45;&gt;l_only_finishes -->
<g id="edge2" class="edge">
<title>j_loop&#45;&gt;l_only_finishes</title>
<path fill="none" stroke="black" d="M304.58,-117C307.36,-117 310.13,-117 312.91,-117"/>
<polygon fill="black" stroke="black" points="312.97,-120.5 322.97,-117 312.97,-113.5 312.97,-120.5"/>
</g>
<!-- d_output -->
<g id="node11" class="node">
<title>d_output</title>
<polygon fill="lightpink" stroke="black" points="545.75,-99 614.25,-99 638.65,-135 521.35,-135 545.75,-99"/>
<text text-anchor="middle" x="580" y="-113.3" font-family="Times,serif" font-size="14.00">output</text>
</g>
<!-- l_referee&#45;&gt;j_loop -->
<g id="edge1" class="edge">
<title>l_referee&#45;&gt;j_loop</title>
<path fill="none" stroke="black" d="M225.04,-117C227.82,-117 230.59,-117 233.36,-117"/>
<polygon fill="black" stroke="black" points="233.4,-120.5 243.4,-117 233.4,-113.5 233.4,-120.5"/>
</g>
<!-- l_draw -->
<g id="node14" class="node">
<title>l_draw</title>
<polygon fill="lightblue" stroke="black" points="503,-135 449,-135 449,-99 503,-99 503,-135"/>
<text text-anchor="middle" x="476" y="-113.3" font-family="Times,serif" font-size="14.00">draw</text>
</g>
<!-- l_only_finishes&#45;&gt;l_draw -->
<g id="edge3" class="edge">
<title>l_only_finishes&#45;&gt;l_draw</title>
<path fill="none" stroke="black" d="M431.14,-117C433.6,-117 436.07,-117 438.53,-117"/>
<polygon fill="black" stroke="black" points="438.66,-120.5 448.66,-117 438.66,-113.5 438.66,-120.5"/>
</g>
<!-- l_draw&#45;&gt;d_output -->
<g id="edge4" class="edge">
<title>l_draw&#45;&gt;d_output</title>
<path fill="none" stroke="black" d="M503.22,-117C509.85,-117 516.47,-117 523.1,-117"/>
<polygon fill="black" stroke="black" points="523.51,-120.5 533.51,-117 523.51,-113.5 523.51,-120.5"/>
</g>
</g>
</svg>
