<svg width="715pt" height="365pt" viewBox="0.00 0.00 714.97 365.00" xmlns="http://www.w3.org/2000/svg" xmlns:xlink="http://www.w3.org/1999/xlink"><g id="graph0" class="graph" transform="scale(1 1) rotate(0) translate(4 361)"><title>g_get_graph</title><polygon fill="white" stroke="transparent" points="-4,4 -4,-361 710.97,-361 710.97,4 -4,4"/><g id="clust2" class="cluster"><title>cluster_nodes_looper</title><polygon fill="none" stroke="black" points="29.97,-155 29.97,-230 317.97,-230 317.97,-155 29.97,-155"/><text text-anchor="middle" x="62.97" y="-214.8" font-family="Times,serif" font-size="14.00">looper:</text></g><g id="clust3" class="cluster"><title>cluster_nodes_player_o_branch</title><polygon fill="none" stroke="black" points="158.97,-8 158.97,-83 388.97,-83 388.97,-8 158.97,-8"/><text text-anchor="middle" x="227.47" y="-67.8" font-family="Times,serif" font-size="14.00">player_o_branch:</text></g><g id="clust4" class="cluster"><title>cluster_nodes_player_x_branch</title><polygon fill="none" stroke="black" points="468.97,-8 468.97,-83 698.97,-83 698.97,-8 468.97,-8"/><text text-anchor="middle" x="537.47" y="-67.8" font-family="Times,serif" font-size="14.00">player_x_branch:</text></g><g id="clust5" class="cluster"><title>cluster_nodes_random_selection</title><polygon fill="none" stroke="black" points="325.97,-155 325.97,-230 664.97,-230 664.97,-155 325.97,-155"/><text text-anchor="middle" x="398.97" y="-214.8" font-family="Times,serif" font-size="14.00">random_selection:</text></g><g id="clust6" class="cluster"><title>cluster_nodes_last_draw</title><polygon fill="none" stroke="black" points="29.97,-238 29.97,-313 527.97,-313 527.97,-238 29.97,-238"/><text text-anchor="middle" x="74.97" y="-297.8" font-family="Times,serif" font-size="14.00">last_draw:</text></g><!-- j_draw --><g id="node1" class="node"><title>j_draw</title><ellipse fill="papayawhip" stroke="black" cx="71.97" cy="-339" rx="34.39" ry="18"/><text text-anchor="middle" x="71.97" y="-335.3" font-family="Times,serif" font-size="14.00">draw</text></g><!-- l_referee --><g id="node11" class="node"><title>l_referee</title><polygon fill="lightblue" stroke="black" points="105.97,-282 37.97,-282 37.97,-246 105.97,-246 105.97,-282"/><text text-anchor="middle" x="71.97" y="-260.3" font-family="Times,serif" font-size="14.00">referee</text></g><!-- j_draw&#45;&gt;l_referee --><g id="edge1" class="edge"><title>j_draw&#45;&gt;l_referee</title><path fill="none" stroke="black" d="M71.97,-320.7C71.97,-312.25 71.97,-301.87 71.97,-292.37"/><polygon fill="black" stroke="black" points="75.47,-292.18 71.97,-282.18 68.47,-292.18 75.47,-292.18"/></g><!-- j_turn --><g id="node2" class="node"><title>j_turn</title><ellipse fill="papayawhip" stroke="black" cx="345.97" cy="-109" rx="30.59" ry="18"/><text text-anchor="middle" x="345.97" y="-105.3" font-family="Times,serif" font-size="14.00">turn</text></g><!-- l_player_o_filter --><g id="node5" class="node"><title>l_player_o_filter</title><polygon fill="lightblue" stroke="black" points="380.97,-52 262.97,-52 262.97,-16 380.97,-16 380.97,-52"/><text text-anchor="middle" x="321.97" y="-30.3" font-family="Times,serif" font-size="14.00">player_o_filter</text></g><!-- j_turn&#45;&gt;l_player_o_filter --><g id="edge9" class="edge"><title>j_turn&#45;&gt;l_player_o_filter</title><path fill="none" stroke="black" d="M340.4,-91.07C337.55,-82.38 334,-71.59 330.78,-61.8"/><polygon fill="black" stroke="black" points="334.04,-60.5 327.59,-52.09 327.39,-62.69 334.04,-60.5"/></g><!-- l_player_x_filter --><g id="node7" class="node"><title>l_player_x_filter</title><polygon fill="lightblue" stroke="black" points="594.97,-52 476.97,-52 476.97,-16 594.97,-16 594.97,-52"/><text text-anchor="middle" x="535.97" y="-30.3" font-family="Times,serif" font-size="14.00">player_x_filter</text></g><!-- j_turn&#45;&gt;l_player_x_filter --><g id="edge12" class="edge"><title>j_turn&#45;&gt;l_player_x_filter</title><path fill="none" stroke="black" d="M370.81,-98.46C398.88,-87.67 445.42,-69.79 481.95,-55.76"/><polygon fill="black" stroke="black" points="483.41,-58.95 491.48,-52.09 480.89,-52.41 483.41,-58.95"/></g><!-- l_turn_swapper --><g id="node3" class="node"><title>l_turn_swapper</title><polygon fill="lightblue" stroke="black" points="153.47,-199 38.47,-199 38.47,-163 153.47,-163 153.47,-199"/><text text-anchor="middle" x="95.97" y="-177.3" font-family="Times,serif" font-size="14.00">turn_swapper</text></g><!-- b_reprocess --><g id="node4" class="node"><title>b_reprocess</title><polygon fill="lightgray" stroke="black" points="171.79,-175.44 240.97,-163 310.15,-175.44 310.09,-195.56 171.86,-195.56 171.79,-175.44"/><text text-anchor="middle" x="240.97" y="-177.3" font-family="Times,serif" font-size="14.00">reprocess</text></g><!-- l_turn_swapper&#45;&gt;b_reprocess --><g id="edge7" class="edge"><title>l_turn_swapper&#45;&gt;b_reprocess</title><path fill="none" stroke="black" d="M153.74,-181C156.38,-181 159.01,-181 161.65,-181"/><polygon fill="black" stroke="black" points="161.8,-184.5 171.8,-181 161.8,-177.5 161.8,-184.5"/></g><!-- b_reprocess&#45;&gt;j_turn --><g id="edge8" class="edge"><title>b_reprocess&#45;&gt;j_turn</title><path fill="none" stroke="black" d="M261.22,-166.5C277.4,-155.71 300.26,-140.47 318.16,-128.54"/><polygon fill="black" stroke="black" points="320.12,-131.44 326.5,-122.98 316.24,-125.62 320.12,-131.44"/></g><!-- l_player_o --><g id="node6" class="node"><title>l_player_o</title><polygon fill="lightblue" stroke="black" points="244.47,-52 167.47,-52 167.47,-16 244.47,-16 244.47,-52"/><text text-anchor="middle" x="205.97" y="-30.3" font-family="Times,serif" font-size="14.00">player_o</text></g><!-- l_player_o_filter&#45;&gt;l_player_o --><g id="edge10" class="edge"><title>l_player_o_filter&#45;&gt;l_player_o</title><path fill="none" stroke="black" d="M262.95,-34C260.16,-34 257.37,-34 254.58,-34"/><polygon fill="black" stroke="black" points="254.49,-30.5 244.49,-34 254.49,-37.5 254.49,-30.5"/></g><!-- l_player_o&#45;&gt;j_draw --><g id="edge11" class="edge"><title>l_player_o&#45;&gt;j_draw</title><path fill="none" stroke="black" d="M167.34,-48.07C123.96,-65.07 55.74,-99.37 25.97,-155 -7.16,-216.91 -9.92,-252.64 25.97,-313 28.22,-316.78 31.26,-320.02 34.71,-322.8"/><polygon fill="black" stroke="black" points="33.06,-325.9 43.34,-328.46 36.9,-320.05 33.06,-325.9"/></g><!-- l_player_x --><g id="node8" class="node"><title>l_player_x</title><polygon fill="lightblue" stroke="black" points="690.47,-52 613.47,-52 613.47,-16 690.47,-16 690.47,-52"/><text text-anchor="middle" x="651.97" y="-30.3" font-family="Times,serif" font-size="14.00">player_x</text></g><!-- l_player_x_filter&#45;&gt;l_player_x --><g id="edge13" class="edge"><title>l_player_x_filter&#45;&gt;l_player_x</title><path fill="none" stroke="black" d="M595.33,-34C597.82,-34 600.31,-34 602.8,-34"/><polygon fill="black" stroke="black" points="603.03,-37.5 613.03,-34 603.03,-30.5 603.03,-37.5"/></g><!-- l_player_x&#45;&gt;j_draw --><g id="edge14" class="edge"><title>l_player_x&#45;&gt;j_draw</title><path fill="none" stroke="black" d="M659.5,-52C674.05,-87.64 701.83,-171.67 668.97,-230 634.03,-292.03 599.99,-292 531.97,-313 455.4,-336.65 216.81,-338.59 116.79,-338.32"/><polygon fill="black" stroke="black" points="116.72,-334.82 106.71,-338.28 116.7,-341.82 116.72,-334.82"/></g><!-- l_random_player --><g id="node9" class="node"><title>l_random_player</title><polygon fill="lightblue" stroke="black" points="457.47,-199 334.47,-199 334.47,-163 457.47,-163 457.47,-199"/><text text-anchor="middle" x="395.97" y="-177.3" font-family="Times,serif" font-size="14.00">random_player</text></g><!-- r_regulate_flow --><g id="node10" class="node"><title>r_regulate_flow</title><polygon fill="lightgray" stroke="black" points="656.53,-186.56 565.97,-199 475.41,-186.56 475.49,-166.44 656.45,-166.44 656.53,-186.56"/><text text-anchor="middle" x="565.97" y="-177.3" font-family="Times,serif" font-size="14.00">regulate_flow</text></g><!-- l_random_player&#45;&gt;r_regulate_flow --><g id="edge15" class="edge"><title>l_random_player&#45;&gt;r_regulate_flow</title><path fill="none" stroke="black" d="M457.73,-181C460.17,-181 462.6,-181 465.04,-181"/><polygon fill="black" stroke="black" points="465.06,-184.5 475.06,-181 465.06,-177.5 465.06,-184.5"/></g><!-- r_regulate_flow&#45;&gt;j_turn --><g id="edge16" class="edge"><title>r_regulate_flow&#45;&gt;j_turn</title><path fill="none" stroke="black" d="M523.29,-166.42C482.23,-153.35 420.82,-133.82 382.11,-121.5"/><polygon fill="black" stroke="black" points="382.9,-118.08 372.31,-118.38 380.77,-124.75 382.9,-118.08"/></g><!-- j_loop --><g id="node15" class="node"><title>j_loop</title><ellipse fill="papayawhip" stroke="black" cx="154.97" cy="-264" rx="30.59" ry="18"/><text text-anchor="middle" x="154.97" y="-260.3" font-family="Times,serif" font-size="14.00">loop</text></g><!-- l_referee&#45;&gt;j_loop --><g id="edge2" class="edge"><title>l_referee&#45;&gt;j_loop</title><path fill="none" stroke="black" d="M106.01,-264C108.79,-264 111.56,-264 114.33,-264"/><polygon fill="black" stroke="black" points="114.37,-267.5 124.37,-264 114.37,-260.5 114.37,-267.5"/></g><!-- l_only_finishes --><g id="node12" class="node"><title>l_only_finishes</title><polygon fill="lightblue" stroke="black" points="311.97,-282 203.97,-282 203.97,-246 311.97,-246 311.97,-282"/><text text-anchor="middle" x="257.97" y="-260.3" font-family="Times,serif" font-size="14.00">only_finishes</text></g><!-- l_draw --><g id="node13" class="node"><title>l_draw</title><polygon fill="lightblue" stroke="black" points="383.97,-282 329.97,-282 329.97,-246 383.97,-246 383.97,-282"/><text text-anchor="middle" x="356.97" y="-260.3" font-family="Times,serif" font-size="14.00">draw</text></g><!-- l_only_finishes&#45;&gt;l_draw --><g id="edge4" class="edge"><title>l_only_finishes&#45;&gt;l_draw</title><path fill="none" stroke="black" d="M312.11,-264C314.58,-264 317.04,-264 319.5,-264"/><polygon fill="black" stroke="black" points="319.64,-267.5 329.64,-264 319.64,-260.5 319.64,-267.5"/></g><!-- d_output --><g id="node14" class="node"><title>d_output</title><polygon fill="lightpink" stroke="black" points="426.72,-246 495.23,-246 519.62,-282 402.32,-282 426.72,-246"/><text text-anchor="middle" x="460.97" y="-260.3" font-family="Times,serif" font-size="14.00">output</text></g><!-- l_draw&#45;&gt;d_output --><g id="edge5" class="edge"><title>l_draw&#45;&gt;d_output</title><path fill="none" stroke="black" d="M384.19,-264C390.82,-264 397.44,-264 404.07,-264"/><polygon fill="black" stroke="black" points="404.48,-267.5 414.48,-264 404.48,-260.5 404.48,-267.5"/></g><!-- j_loop&#45;&gt;l_turn_swapper --><g id="edge6" class="edge"><title>j_loop&#45;&gt;l_turn_swapper</title><path fill="none" stroke="black" d="M143.31,-247C135.05,-235.65 123.79,-220.2 114.33,-207.2"/><polygon fill="black" stroke="black" points="117.14,-205.11 108.42,-199.09 111.48,-209.23 117.14,-205.11"/></g><!-- j_loop&#45;&gt;l_only_finishes --><g id="edge3" class="edge"><title>j_loop&#45;&gt;l_only_finishes</title><path fill="none" stroke="black" d="M185.55,-264C188.33,-264 191.1,-264 193.88,-264"/><polygon fill="black" stroke="black" points="193.94,-267.5 203.94,-264 193.94,-260.5 193.94,-267.5"/></g></g></svg>