<?xml version="1.0" encoding="UTF-8" standalone="no"?>
<!DOCTYPE svg PUBLIC "-//W3C//DTD SVG 1.1//EN"
 "http://www.w3.org/Graphics/SVG/1.1/DTD/svg11.dtd">
<!-- Generated by graphviz version 2.43.0 (0)
 -->
<!-- Title: g_get_graph Pages: 1 -->
<svg width="459pt" height="85pt"
 viewBox="0.00 0.00 459.00 85.00" xmlns="http://www.w3.org/2000/svg" xmlns:xlink="http://www.w3.org/1999/xlink">
<g id="graph0" class="graph" transform="scale(1 1) rotate(0) translate(4 81)">
<title>g_get_graph</title>
<polygon fill="white" stroke="transparent" points="-4,4 -4,-81 455,-81 455,4 -4,4"/>
<g id="clust2" class="cluster">
<title>cluster_legend_launch</title>
<polygon fill="none" stroke="black" points="8,-8 8,-69 72,-69 72,-8 8,-8"/>
<text text-anchor="middle" x="40" y="-53.8" font-family="Times,serif" font-size="14.00">launch</text>
</g>
<g id="clust3" class="cluster">
<title>cluster_legend_buffer</title>
<polygon fill="none" stroke="black" points="80,-8 80,-69 139,-69 139,-8 80,-8"/>
<text text-anchor="middle" x="109.5" y="-53.8" font-family="Times,serif" font-size="14.00">buffer</text>
</g>
<g id="clust4" class="cluster">
<title>cluster_legend_regulator</title>
<polygon fill="none" stroke="black" points="147,-8 147,-69 230,-69 230,-8 147,-8"/>
<text text-anchor="middle" x="188.5" y="-53.8" font-family="Times,serif" font-size="14.00">regulator</text>
</g>
<g id="clust5" class="cluster">
<title>cluster_legend_junction</title>
<polygon fill="none" stroke="black" points="238,-8 238,-69 312,-69 312,-8 238,-8"/>
<text text-anchor="middle" x="275" y="-53.8" font-family="Times,serif" font-size="14.00">junction</text>
</g>
<g id="clust6" class="cluster">
<title>cluster_legend_faucet</title>
<polygon fill="none" stroke="black" points="320,-8 320,-69 381,-69 381,-8 320,-8"/>
<text text-anchor="middle" x="350.5" y="-53.8" font-family="Times,serif" font-size="14.00">faucet</text>
</g>
<g id="clust7" class="cluster">
<title>cluster_legend_drain</title>
<polygon fill="none" stroke="black" points="389,-8 389,-69 443,-69 443,-8 389,-8"/>
<text text-anchor="middle" x="416" y="-53.8" font-family="Times,serif" font-size="14.00">drain</text>
</g>
<!-- legend_launch -->
<g id="node1" class="node">
<title>legend_launch</title>
<polygon fill="lightblue" stroke="black" points="51,-38 29,-38 29,-16 51,-16 51,-38"/>
</g>
<!-- legend_buffer -->
<g id="node2" class="node">
<title>legend_buffer</title>
<polygon fill="lightgray" stroke="black" points="98,-23.6 109,-16 120,-23.6 119.99,-35.9 98.01,-35.9 98,-23.6"/>
</g>
<!-- legend_regulator -->
<g id="node3" class="node">
<title>legend_regulator</title>
<polygon fill="lightgray" stroke="black" points="199,-30.4 188,-38 177,-30.4 177.01,-18.1 198.99,-18.1 199,-30.4"/>
</g>
<!-- legend_junction -->
<g id="node4" class="node">
<title>legend_junction</title>
<ellipse fill="papayawhip" stroke="black" cx="275" cy="-27" rx="11" ry="11"/>
</g>
<!-- legend_faucet -->
<g id="node5" class="node">
<title>legend_faucet</title>
<polygon fill="#c1ffc1" stroke="black" points="356.42,-38 343.58,-38 339,-16 361,-16 356.42,-38"/>
</g>
<!-- legend_drain -->
<g id="node6" class="node">
<title>legend_drain</title>
<polygon fill="lightpink" stroke="black" points="409.58,-16 422.42,-16 427,-38 405,-38 409.58,-16"/>
</g>
</g>
</svg>
