<?xml version="1.0" encoding="UTF-8" standalone="no"?>
<!DOCTYPE svg PUBLIC "-//W3C//DTD SVG 1.1//EN"
 "http://www.w3.org/Graphics/SVG/1.1/DTD/svg11.dtd">
<!-- Generated by graphviz version 2.43.0 (0)
 -->
<!-- Title: %3 Pages: 1 -->
<svg width="1003pt" height="106pt"
 viewBox="0.00 0.00 1003.00 106.00" xmlns="http://www.w3.org/2000/svg" xmlns:xlink="http://www.w3.org/1999/xlink">
<g id="graph0" class="graph" transform="scale(1 1) rotate(0) translate(4 102)">
<title>%3</title>
<polygon fill="white" stroke="transparent" points="-4,4 -4,-102 999,-102 999,4 -4,4"/>
<!-- cat -->
<g id="node1" class="node">
<title>cat</title>
<polygon fill="none" stroke="black" points="86,-67 0,-67 0,-31 86,-31 86,-67"/>
<text text-anchor="middle" x="43" y="-45.3" font-family="Times,serif" font-size="14.00">cat myfile</text>
</g>
<!-- awk -->
<g id="node2" class="node">
<title>awk</title>
<polygon fill="none" stroke="black" points="334,-67 122,-67 122,-31 334,-31 334,-67"/>
<text text-anchor="middle" x="228" y="-45.3" font-family="Times,serif" font-size="14.00">awk &#39;PAT { do something }&#39;</text>
</g>
<!-- cat&#45;&gt;awk -->
<g id="edge1" class="edge">
<title>cat&#45;&gt;awk</title>
<path fill="none" stroke="black" d="M86.44,-49C94.27,-49 102.77,-49 111.6,-49"/>
<polygon fill="black" stroke="black" points="111.67,-52.5 121.67,-49 111.67,-45.5 111.67,-52.5"/>
</g>
<!-- grep2 -->
<g id="node3" class="node">
<title>grep2</title>
<polygon fill="none" stroke="black" points="478,-67 370,-67 370,-31 478,-31 478,-67"/>
<text text-anchor="middle" x="424" y="-45.3" font-family="Times,serif" font-size="14.00">grep &#39;^good&#39;</text>
</g>
<!-- awk&#45;&gt;grep2 -->
<g id="edge2" class="edge">
<title>awk&#45;&gt;grep2</title>
<path fill="none" stroke="black" d="M334.23,-49C342.88,-49 351.43,-49 359.62,-49"/>
<polygon fill="black" stroke="black" points="359.78,-52.5 369.78,-49 359.78,-45.5 359.78,-52.5"/>
</g>
<!-- awk2 -->
<g id="node4" class="node">
<title>awk2</title>
<polygon fill="none" stroke="black" points="709,-98 514,-98 514,0 709,0 709,-98"/>
<text text-anchor="start" x="522" y="-82.8" font-family="Times,serif" font-size="14.00">awk &#39;</text>
<text text-anchor="start" x="522" y="-67.8" font-family="Times,serif" font-size="14.00">$1=&#39;good&#39; {</text>
<text text-anchor="start" x="522" y="-52.8" font-family="Times,serif" font-size="14.00"> &#160;&#160;&#160;print /dev/stdout; next</text>
<text text-anchor="start" x="522" y="-37.8" font-family="Times,serif" font-size="14.00">}{</text>
<text text-anchor="start" x="522" y="-22.8" font-family="Times,serif" font-size="14.00"> &#160;&#160;&#160;print /dev/stderr</text>
<text text-anchor="start" x="522" y="-7.8" font-family="Times,serif" font-size="14.00">}&#39;</text>
</g>
<!-- grep2&#45;&gt;awk2 -->
<g id="edge3" class="edge">
<title>grep2&#45;&gt;awk2</title>
<path fill="none" stroke="black" d="M478.16,-49C486.32,-49 495,-49 503.84,-49"/>
<polygon fill="black" stroke="black" points="503.88,-52.5 513.88,-49 503.88,-45.5 503.88,-52.5"/>
</g>
<!-- sed -->
<g id="node5" class="node">
<title>sed</title>
<polygon fill="none" stroke="black" points="905,-67 745,-67 745,-31 905,-31 905,-67"/>
<text text-anchor="middle" x="825" y="-45.3" font-family="Times,serif" font-size="14.00">sed &#39;s/good/perfect/&#39;</text>
</g>
<!-- awk2&#45;&gt;sed -->
<g id="edge4" class="edge">
<title>awk2&#45;&gt;sed</title>
<path fill="none" stroke="black" d="M709.27,-49C717.7,-49 726.21,-49 734.58,-49"/>
<polygon fill="black" stroke="black" points="734.7,-52.5 744.7,-49 734.7,-45.5 734.7,-52.5"/>
</g>
<!-- sort -->
<g id="node6" class="node">
<title>sort</title>
<polygon fill="none" stroke="black" points="995,-67 941,-67 941,-31 995,-31 995,-67"/>
<text text-anchor="middle" x="968" y="-45.3" font-family="Times,serif" font-size="14.00">sort</text>
</g>
<!-- sed&#45;&gt;sort -->
<g id="edge5" class="edge">
<title>sed&#45;&gt;sort</title>
<path fill="none" stroke="black" d="M905.16,-49C914.15,-49 922.95,-49 930.96,-49"/>
<polygon fill="black" stroke="black" points="930.99,-52.5 940.99,-49 930.99,-45.5 930.99,-52.5"/>
</g>
</g>
</svg>
