<?xml version="1.0" encoding="UTF-8" standalone="no"?>
<!DOCTYPE svg PUBLIC "-//W3C//DTD SVG 1.1//EN"
 "http://www.w3.org/Graphics/SVG/1.1/DTD/svg11.dtd">
<!-- Generated by graphviz version 2.43.0 (0)
 -->
<!-- Title: %3 Pages: 1 -->
<svg width="1323pt" height="121pt"
 viewBox="0.00 0.00 1323.00 121.00" xmlns="http://www.w3.org/2000/svg" xmlns:xlink="http://www.w3.org/1999/xlink">
<g id="graph0" class="graph" transform="scale(1 1) rotate(0) translate(4 117)">
<title>%3</title>
<polygon fill="white" stroke="transparent" points="-4,4 -4,-117 1319,-117 1319,4 -4,4"/>
<!-- cat -->
<g id="node1" class="node">
<title>cat</title>
<polygon fill="none" stroke="black" points="86,-67 0,-67 0,-31 86,-31 86,-67"/>
<text text-anchor="middle" x="43" y="-45.3" font-family="Times,serif" font-size="14.00">cat myfile</text>
</g>
<!-- awk -->
<g id="node2" class="node">
<title>awk</title>
<polygon fill="none" stroke="black" points="335,-67 123,-67 123,-31 335,-31 335,-67"/>
<text text-anchor="middle" x="229" y="-45.3" font-family="Times,serif" font-size="14.00">awk &#39;PAT { do something }&#39;</text>
</g>
<!-- cat&#45;&gt;awk -->
<g id="edge1" class="edge">
<title>cat&#45;&gt;awk</title>
<path fill="none" stroke="black" d="M86.21,-49C94.39,-49 103.33,-49 112.6,-49"/>
<polygon fill="black" stroke="black" points="112.78,-52.5 122.78,-49 112.78,-45.5 112.78,-52.5"/>
</g>
<!-- grep1 -->
<g id="node3" class="node">
<title>grep1</title>
<polygon fill="none" stroke="black" points="472,-113 372,-113 372,-77 472,-77 472,-113"/>
<text text-anchor="middle" x="422" y="-91.3" font-family="Times,serif" font-size="14.00">grep &#39;^bad&#39;</text>
</g>
<!-- awk&#45;&gt;grep1 -->
<g id="edge2" class="edge">
<title>awk&#45;&gt;grep1</title>
<path fill="none" stroke="black" d="M304.94,-67.05C323.9,-71.61 343.99,-76.45 362.04,-80.8"/>
<polygon fill="black" stroke="black" points="361.29,-84.22 371.83,-83.16 362.93,-77.41 361.29,-84.22"/>
</g>
<!-- grep2 -->
<g id="node8" class="node">
<title>grep2</title>
<polygon fill="none" stroke="black" points="598,-67 490,-67 490,-31 598,-31 598,-67"/>
<text text-anchor="middle" x="544" y="-45.3" font-family="Times,serif" font-size="14.00">grep &#39;^good&#39;</text>
</g>
<!-- awk&#45;&gt;grep2 -->
<g id="edge7" class="edge">
<title>awk&#45;&gt;grep2</title>
<path fill="none" stroke="black" d="M335.1,-49C383.07,-49 438.29,-49 479.75,-49"/>
<polygon fill="black" stroke="black" points="479.99,-52.5 489.99,-49 479.99,-45.5 479.99,-52.5"/>
</g>
<!-- do -->
<g id="node4" class="node">
<title>do</title>
<polygon fill="none" stroke="black" points="795,-113 616,-113 616,-77 795,-77 795,-113"/>
<text text-anchor="middle" x="705.5" y="-91.3" font-family="Times,serif" font-size="14.00">do &#39;further processing&#39;</text>
</g>
<!-- grep1&#45;&gt;do -->
<g id="edge3" class="edge">
<title>grep1&#45;&gt;do</title>
<path fill="none" stroke="black" d="M472.03,-95C508.86,-95 560.54,-95 605.81,-95"/>
<polygon fill="black" stroke="black" points="605.97,-98.5 615.97,-95 605.97,-91.5 605.97,-98.5"/>
</g>
<!-- awk2 -->
<g id="node5" class="node">
<title>awk2</title>
<polygon fill="none" stroke="black" points="1027,-98 832,-98 832,0 1027,0 1027,-98"/>
<text text-anchor="start" x="840" y="-82.8" font-family="Times,serif" font-size="14.00">awk &#39;</text>
<text text-anchor="start" x="840" y="-67.8" font-family="Times,serif" font-size="14.00">$1=&#39;good&#39; {</text>
<text text-anchor="start" x="840" y="-52.8" font-family="Times,serif" font-size="14.00"> &#160;&#160;&#160;print /dev/stdout; next</text>
<text text-anchor="start" x="840" y="-37.8" font-family="Times,serif" font-size="14.00">}{</text>
<text text-anchor="start" x="840" y="-22.8" font-family="Times,serif" font-size="14.00"> &#160;&#160;&#160;print /dev/stderr</text>
<text text-anchor="start" x="840" y="-7.8" font-family="Times,serif" font-size="14.00">}&#39;</text>
</g>
<!-- do&#45;&gt;awk2 -->
<g id="edge4" class="edge">
<title>do&#45;&gt;awk2</title>
<path fill="none" stroke="black" d="M793.6,-76.95C802.89,-75.03 812.41,-73.05 821.89,-71.09"/>
<polygon fill="black" stroke="black" points="822.65,-74.51 831.74,-69.05 821.23,-67.65 822.65,-74.51"/>
</g>
<!-- awk2&#45;&gt;awk -->
<g id="edge9" class="edge">
<title>awk2&#45;&gt;awk</title>
<path fill="none" stroke="black" d="M831.91,-29.97C743.11,-14.8 607.78,2.45 490,-7 436.6,-11.29 377.62,-20.45 329.35,-29.12"/>
<polygon fill="black" stroke="black" points="328.43,-25.73 319.22,-30.96 329.68,-32.62 328.43,-25.73"/>
<text text-anchor="middle" x="544" y="-10.8" font-family="Times,serif" font-size="14.00">STDERR</text>
</g>
<!-- sed -->
<g id="node6" class="node">
<title>sed</title>
<polygon fill="none" stroke="black" points="1224,-67 1064,-67 1064,-31 1224,-31 1224,-67"/>
<text text-anchor="middle" x="1144" y="-45.3" font-family="Times,serif" font-size="14.00">sed &#39;s/good/perfect/&#39;</text>
</g>
<!-- awk2&#45;&gt;sed -->
<g id="edge5" class="edge">
<title>awk2&#45;&gt;sed</title>
<path fill="none" stroke="black" d="M1027.11,-49C1035.94,-49 1044.85,-49 1053.61,-49"/>
<polygon fill="black" stroke="black" points="1053.81,-52.5 1063.81,-49 1053.81,-45.5 1053.81,-52.5"/>
</g>
<!-- sort -->
<g id="node7" class="node">
<title>sort</title>
<polygon fill="none" stroke="black" points="1315,-67 1261,-67 1261,-31 1315,-31 1315,-67"/>
<text text-anchor="middle" x="1288" y="-45.3" font-family="Times,serif" font-size="14.00">sort</text>
</g>
<!-- sed&#45;&gt;sort -->
<g id="edge6" class="edge">
<title>sed&#45;&gt;sort</title>
<path fill="none" stroke="black" d="M1224.3,-49C1233.49,-49 1242.49,-49 1250.68,-49"/>
<polygon fill="black" stroke="black" points="1250.91,-52.5 1260.91,-49 1250.91,-45.5 1250.91,-52.5"/>
</g>
<!-- grep2&#45;&gt;awk2 -->
<g id="edge8" class="edge">
<title>grep2&#45;&gt;awk2</title>
<path fill="none" stroke="black" d="M598.32,-49C655.82,-49 748.87,-49 821.56,-49"/>
<polygon fill="black" stroke="black" points="821.67,-52.5 831.67,-49 821.67,-45.5 821.67,-52.5"/>
</g>
</g>
</svg>
